<svg width="20" height="22" viewBox="0 0 20 22" fill="none" xmlns="http://www.w3.org/2000/svg">
<circle cx="10" cy="10" r="9.25" fill="white" stroke="#4F4F4F" stroke-width="1.5"/>
<path d="M9.022 15V7.902H10.408V15H9.022ZM9.092 6.348C8.93333 6.18 8.854 5.97467 8.854 5.732C8.854 5.48933 8.93333 5.284 9.092 5.116C9.26 4.948 9.46533 4.864 9.708 4.864C9.95067 4.864 10.156 4.948 10.324 5.116C10.492 5.284 10.576 5.48933 10.576 5.732C10.576 5.96533 10.492 6.166 10.324 6.334C10.156 6.502 9.95067 6.586 9.708 6.586C9.46533 6.586 9.26 6.50667 9.092 6.348Z" fill="#4F4F4F"/>
</svg>
