<svg width="48" height="17" viewBox="0 0 48 17" fill="none" xmlns="http://www.w3.org/2000/svg">
<path d="M13.192 0.0482645L10.828 2.36075C10.7893 2.39854 10.7877 2.46018 10.8243 2.49995L18.109 10.4174C18.1563 10.4688 18.1376 10.5517 18.0727 10.5778L4.53035 16.0324C4.4325 16.0718 4.45444 16.2163 4.55958 16.2248L14.0489 16.9984C14.0622 16.9994 14.0745 16.9982 14.0871 16.9941C16.587 16.1795 23.8569 13.9175 33.1035 11.3333C42.1519 8.80448 46.6786 5.04128 47.9154 3.35744C47.9574 3.30029 47.9256 3.22195 47.8561 3.20786C41.9153 2.00247 32.8617 5.38758 29.0069 7.26552C28.9798 7.27872 28.9496 7.27836 28.9223 7.2657L13.304 0.0290175C13.2663 0.0115508 13.2217 0.0192124 13.192 0.0482645Z" fill="#BDBDBD"/>
<path d="M1.60472 9.76364L0.0730815 11.2618C0.0329832 11.3011 0.0329831 11.3656 0.0730814 11.4048L3.26703 14.5291C3.29365 14.5551 3.33254 14.5642 3.36795 14.5526L8.04126 13.0289C8.12667 13.001 8.1349 12.8834 8.0542 12.844L1.71858 9.7453C1.68056 9.7267 1.63497 9.73405 1.60472 9.76364Z" fill="#BDBDBD"/>
</svg>
