<svg width="22" height="28" viewBox="0 0 22 28" fill="none" xmlns="http://www.w3.org/2000/svg">
<circle cx="11" cy="12" r="11" fill="#FF481A"/>
<path d="M10.6385 15.148V6.868H12.3665V15.148H10.6385ZM10.6025 18.802C10.3745 18.562 10.2605 18.268 10.2605 17.92C10.2605 17.572 10.3745 17.278 10.6025 17.038C10.8425 16.798 11.1365 16.678 11.4845 16.678C11.8205 16.678 12.1085 16.804 12.3485 17.056C12.6005 17.296 12.7265 17.584 12.7265 17.92C12.7265 18.268 12.6065 18.562 12.3665 18.802C12.1265 19.03 11.8325 19.144 11.4845 19.144C11.1365 19.144 10.8425 19.03 10.6025 18.802Z" fill="white"/>
</svg>
