<svg width="18" height="19" viewBox="0 0 18 19" fill="none" xmlns="http://www.w3.org/2000/svg">
<path d="M15 12H14.5H15ZM17 16V16.5C17.2319 16.5 17.4333 16.3406 17.4866 16.1149C17.5399 15.8892 17.431 15.6565 17.2236 15.5528L17 16ZM1 16L0.776393 15.5528C0.568986 15.6565 0.460098 15.8892 0.513375 16.1149C0.566653 16.3406 0.768111 16.5 1 16.5V16ZM14.5 6.99995C14.5 7.00369 14.5 7.00742 14.5 7.01116C14.5 7.0149 14.5 7.01863 14.5 7.02237C14.5 7.02611 14.5 7.02984 14.5 7.03358C14.5 7.03732 14.5 7.04105 14.5 7.04479C14.5 7.04853 14.5 7.05226 14.5 7.056C14.5 7.05974 14.5 7.06347 14.5 7.06721C14.5 7.07095 14.5 7.07468 14.5 7.07842C14.5 7.08216 14.5 7.08589 14.5 7.08963C14.5 7.09337 14.5 7.0971 14.5 7.10084C14.5 7.10458 14.5 7.10831 14.5 7.11205C14.5 7.11579 14.5 7.11952 14.5 7.12326C14.5 7.127 14.5 7.13073 14.5 7.13447C14.5 7.13821 14.5 7.14194 14.5 7.14568C14.5 7.14942 14.5 7.15315 14.5 7.15689C14.5 7.16063 14.5 7.16436 14.5 7.1681C14.5 7.17183 14.5 7.17557 14.5 7.17931C14.5 7.18304 14.5 7.18678 14.5 7.19052C14.5 7.19425 14.5 7.19799 14.5 7.20172C14.5 7.20546 14.5 7.20919 14.5 7.21293C14.5 7.21667 14.5 7.2204 14.5 7.22414C14.5 7.22787 14.5 7.23161 14.5 7.23534C14.5 7.23908 14.5 7.24281 14.5 7.24655C14.5 7.25028 14.5 7.25402 14.5 7.25775C14.5 7.26149 14.5 7.26522 14.5 7.26896C14.5 7.27269 14.5 7.27643 14.5 7.28016C14.5 7.2839 14.5 7.28763 14.5 7.29137C14.5 7.2951 14.5 7.29884 14.5 7.30257C14.5 7.3063 14.5 7.31004 14.5 7.31377C14.5 7.31751 14.5 7.32124 14.5 7.32497C14.5 7.32871 14.5 7.33244 14.5 7.33617C14.5 7.33991 14.5 7.34364 14.5 7.34737C14.5 7.35111 14.5 7.35484 14.5 7.35857C14.5 7.3623 14.5 7.36604 14.5 7.36977C14.5 7.3735 14.5 7.37723 14.5 7.38097C14.5 7.3847 14.5 7.38843 14.5 7.39216C14.5 7.39589 14.5 7.39962 14.5 7.40336C14.5 7.40709 14.5 7.41082 14.5 7.41455C14.5 7.41828 14.5 7.42201 14.5 7.42574C14.5 7.42947 14.5 7.4332 14.5 7.43693C14.5 7.44066 14.5 7.44439 14.5 7.44812C14.5 7.45185 14.5 7.45558 14.5 7.45931C14.5 7.46304 14.5 7.46677 14.5 7.4705C14.5 7.47423 14.5 7.47796 14.5 7.48169C14.5 7.48542 14.5 7.48915 14.5 7.49287C14.5 7.4966 14.5 7.50033 14.5 7.50406C14.5 7.50779 14.5 7.51151 14.5 7.51524C14.5 7.51897 14.5 7.5227 14.5 7.52642C14.5 7.53015 14.5 7.53388 14.5 7.5376C14.5 7.54133 14.5 7.54505 14.5 7.54878C14.5 7.55251 14.5 7.55623 14.5 7.55996C14.5 7.56368 14.5 7.56741 14.5 7.57113C14.5 7.57486 14.5 7.57858 14.5 7.58231C14.5 7.58603 14.5 7.58976 14.5 7.59348C14.5 7.5972 14.5 7.60093 14.5 7.60465C14.5 7.60837 14.5 7.6121 14.5 7.61582C14.5 7.61954 14.5 7.62326 14.5 7.62699C14.5 7.63071 14.5 7.63443 14.5 7.63815C14.5 7.64187 14.5 7.64559 14.5 7.64932C14.5 7.65304 14.5 7.65676 14.5 7.66048C14.5 7.6642 14.5 7.66792 14.5 7.67164C14.5 7.67536 14.5 7.67908 14.5 7.6828C14.5 7.68652 14.5 7.69023 14.5 7.69395C14.5 7.69767 14.5 7.70139 14.5 7.70511C14.5 7.70883 14.5 7.71254 14.5 7.71626C14.5 7.71998 14.5 7.72369 14.5 7.72741C14.5 7.73113 14.5 7.73484 14.5 7.73856C14.5 7.74227 14.5 7.74599 14.5 7.74971C14.5 7.75342 14.5 7.75713 14.5 7.76085C14.5 7.76456 14.5 7.76828 14.5 7.77199C14.5 7.77571 14.5 7.77942 14.5 7.78313C14.5 7.78684 14.5 7.79056 14.5 7.79427C14.5 7.79798 14.5 7.80169 14.5 7.80541C14.5 7.80912 14.5 7.81283 14.5 7.81654C14.5 7.82025 14.5 7.82396 14.5 7.82767C14.5 7.83138 14.5 7.83509 14.5 7.8388C14.5 7.84251 14.5 7.84622 14.5 7.84992C14.5 7.85363 14.5 7.85734 14.5 7.86105C14.5 7.86476 14.5 7.86846 14.5 7.87217C14.5 7.87588 14.5 7.87958 14.5 7.88329C14.5 7.88699 14.5 7.8907 14.5 7.8944C14.5 7.89811 14.5 7.90181 14.5 7.90552C14.5 7.90922 14.5 7.91293 14.5 7.91663C14.5 7.92033 14.5 7.92404 14.5 7.92774C14.5 7.93144 14.5 7.93514 14.5 7.93884C14.5 7.94255 14.5 7.94625 14.5 7.94995C14.5 7.95365 14.5 7.95735 14.5 7.96105C14.5 7.96475 14.5 7.96845 14.5 7.97215C14.5 7.97585 14.5 7.97954 14.5 7.98324C14.5 7.98694 14.5 7.99064 14.5 7.99433C14.5 7.99803 14.5 8.00173 14.5 8.00542C14.5 8.00912 14.5 8.01281 14.5 8.01651C14.5 8.0202 14.5 8.0239 14.5 8.02759C14.5 8.03129 14.5 8.03498 14.5 8.03867C14.5 8.04237 14.5 8.04606 14.5 8.04975C14.5 8.05344 14.5 8.05714 14.5 8.06083C14.5 8.06452 14.5 8.06821 14.5 8.0719C14.5 8.07559 14.5 8.07928 14.5 8.08297C14.5 8.08665 14.5 8.09034 14.5 8.09403C14.5 8.09772 14.5 8.10141 14.5 8.10509C14.5 8.10878 14.5 8.11247 14.5 8.11615C14.5 8.11984 14.5 8.12352 14.5 8.12721C14.5 8.13089 14.5 8.13458 14.5 8.13826C14.5 8.14194 14.5 8.14563 14.5 8.14931C14.5 8.15299 14.5 8.15667 14.5 8.16036C14.5 8.16404 14.5 8.16772 14.5 8.1714C14.5 8.17508 14.5 8.17876 14.5 8.18244C14.5 8.18612 14.5 8.18979 14.5 8.19347C14.5 8.19715 14.5 8.20083 14.5 8.2045C14.5 8.20818 14.5 8.21186 14.5 8.21553C14.5 8.21921 14.5 8.22288 14.5 8.22656C14.5 8.23023 14.5 8.23391 14.5 8.23758C14.5 8.24125 14.5 8.24493 14.5 8.2486C14.5 8.25227 14.5 8.25594 14.5 8.25961C14.5 8.26328 14.5 8.26695 14.5 8.27062C14.5 8.27429 14.5 8.27796 14.5 8.28163C14.5 8.2853 14.5 8.28897 14.5 8.29263C14.5 8.2963 14.5 8.29997 14.5 8.30363C14.5 8.3073 14.5 8.31096 14.5 8.31463C14.5 8.31829 14.5 8.32196 14.5 8.32562C14.5 8.32928 14.5 8.33295 14.5 8.33661C14.5 8.34027 14.5 8.34393 14.5 8.34759C14.5 8.35125 14.5 8.35491 14.5 8.35857C14.5 8.36223 14.5 8.36589 14.5 8.36955C14.5 8.37321 14.5 8.37686 14.5 8.38052C14.5 8.38418 14.5 8.38783 14.5 8.39149C14.5 8.39514 14.5 8.3988 14.5 8.40245C14.5 8.40611 14.5 8.40976 14.5 8.41341C14.5 8.41706 14.5 8.42072 14.5 8.42437C14.5 8.42802 14.5 8.43167 14.5 8.43532C14.5 8.43897 14.5 8.44262 14.5 8.44627C14.5 8.44991 14.5 8.45356 14.5 8.45721C14.5 8.46086 14.5 8.4645 14.5 8.46815C14.5 8.47179 14.5 8.47544 14.5 8.47908C14.5 8.48273 14.5 8.48637 14.5 8.49001C14.5 8.49365 14.5 8.4973 14.5 8.50094C14.5 8.50458 14.5 8.50822 14.5 8.51186C14.5 8.5155 14.5 8.51914 14.5 8.52277C14.5 8.52641 14.5 8.53005 14.5 8.53369C14.5 8.53732 14.5 8.54096 14.5 8.54459C14.5 8.54823 14.5 8.55186 14.5 8.5555C14.5 8.55913 14.5 8.56276 14.5 8.5664C14.5 8.57003 14.5 8.57366 14.5 8.57729C14.5 8.58092 14.5 8.58455 14.5 8.58818C14.5 8.59181 14.5 8.59544 14.5 8.59906C14.5 8.60269 14.5 8.60632 14.5 8.60994C14.5 8.61357 14.5 8.61719 14.5 8.62082C14.5 8.62444 14.5 8.62807 14.5 8.63169C14.5 8.63531 14.5 8.63893 14.5 8.64255C14.5 8.64617 14.5 8.6498 14.5 8.65341C14.5 8.65703 14.5 8.66065 14.5 8.66427C14.5 8.66789 14.5 8.6715 14.5 8.67512C14.5 8.67874 14.5 8.68235 14.5 8.68597C14.5 8.68958 14.5 8.69319 14.5 8.69681C14.5 8.70042 14.5 8.70403 14.5 8.70764C14.5 8.71125 14.5 8.71486 14.5 8.71847C14.5 8.72208 14.5 8.72569 14.5 8.7293C14.5 8.73291 14.5 8.73651 14.5 8.74012C14.5 8.74373 14.5 8.74733 14.5 8.75093C14.5 8.75454 14.5 8.75814 14.5 8.76174C14.5 8.76535 14.5 8.76895 14.5 8.77255C14.5 8.77615 14.5 8.77975 14.5 8.78335C14.5 8.78695 14.5 8.79055 14.5 8.79414C14.5 8.79774 14.5 8.80134 14.5 8.80493C14.5 8.80853 14.5 8.81212 14.5 8.81572C14.5 8.81931 14.5 8.8229 14.5 8.82649C14.5 8.83008 14.5 8.83368 14.5 8.83727C14.5 8.84086 14.5 8.84444 14.5 8.84803C14.5 8.85162 14.5 8.85521 14.5 8.85879C14.5 8.86238 14.5 8.86597 14.5 8.86955C14.5 8.87313 14.5 8.87672 14.5 8.8803C14.5 8.88388 14.5 8.88747 14.5 8.89105C14.5 8.89463 14.5 8.89821 14.5 8.90178C14.5 8.90536 14.5 8.90894 14.5 8.91252C14.5 8.9161 14.5 8.91967 14.5 8.92325C14.5 8.92682 14.5 8.93039 14.5 8.93397C14.5 8.93754 14.5 8.94111 14.5 8.94468C14.5 8.94826 14.5 8.95183 14.5 8.95539C14.5 8.95896 14.5 8.96253 14.5 8.9661C14.5 8.96967 14.5 8.97323 14.5 8.9768C14.5 8.98036 14.5 8.98393 14.5 8.98749C14.5 8.99105 14.5 8.99462 14.5 8.99818C14.5 9.00174 14.5 9.0053 14.5 9.00886C14.5 9.01242 14.5 9.01597 14.5 9.01953C14.5 9.02309 14.5 9.02665 14.5 9.0302C14.5 9.03376 14.5 9.03731 14.5 9.04086C14.5 9.04442 14.5 9.04797 14.5 9.05152C14.5 9.05507 14.5 9.05862 14.5 9.06217C14.5 9.06572 14.5 9.06927 14.5 9.07281C14.5 9.07636 14.5 9.07991 14.5 9.08345C14.5 9.087 14.5 9.09054 14.5 9.09408C14.5 9.09763 14.5 9.10117 14.5 9.10471C14.5 9.10825 14.5 9.11179 14.5 9.11533C14.5 9.11887 14.5 9.1224 14.5 9.12594C14.5 9.12948 14.5 9.13301 14.5 9.13655C14.5 9.14008 14.5 9.14361 14.5 9.14715C14.5 9.15068 14.5 9.15421 14.5 9.15774C14.5 9.16127 14.5 9.1648 14.5 9.16833C14.5 9.17185 14.5 9.17538 14.5 9.17891C14.5 9.18243 14.5 9.18596 14.5 9.18948C14.5 9.193 14.5 9.19653 14.5 9.20005C14.5 9.20357 14.5 9.20709 14.5 9.21061C14.5 9.21413 14.5 9.21764 14.5 9.22116C14.5 9.22468 14.5 9.22819 14.5 9.23171C14.5 9.23522 14.5 9.23874 14.5 9.24225C14.5 9.24576 14.5 9.24927 14.5 9.25278C14.5 9.25629 14.5 9.2598 14.5 9.26331C14.5 9.26682 14.5 9.27032 14.5 9.27383C14.5 9.27733 14.5 9.28084 14.5 9.28434C14.5 9.28784 14.5 9.29135 14.5 9.29485C14.5 9.29835 14.5 9.30185 14.5 9.30535C14.5 9.30885 14.5 9.31234 14.5 9.31584C14.5 9.31933 14.5 9.32283 14.5 9.32632C14.5 9.32982 14.5 9.33331 14.5 9.3368C14.5 9.34029 14.5 9.34378 14.5 9.34727C14.5 9.35076 14.5 9.35425 14.5 9.35774C14.5 9.36122 14.5 9.36471 14.5 9.36819C14.5 9.37168 14.5 9.37516 14.5 9.37864C14.5 9.38212 14.5 9.38561 14.5 9.38908C14.5 9.39256 14.5 9.39604 14.5 9.39952C14.5 9.403 14.5 9.40647 14.5 9.40995C14.5 9.41342 14.5 9.4169 14.5 9.42037C14.5 9.42384 14.5 9.42731 14.5 9.43078C14.5 9.43425 14.5 9.43772 14.5 9.44119C14.5 9.44465 14.5 9.44812 14.5 9.45158C14.5 9.45505 14.5 9.45851 14.5 9.46198C14.5 9.46544 14.5 9.4689 14.5 9.47236C14.5 9.47582 14.5 9.47928 14.5 9.48273C14.5 9.48619 14.5 9.48965 14.5 9.4931C14.5 9.49656 14.5 9.50001 14.5 9.50346C14.5 9.50692 14.5 9.51037 14.5 9.51382C14.5 9.51727 14.5 9.52071 14.5 9.52416C14.5 9.52761 14.5 9.53105 14.5 9.5345C14.5 9.53794 14.5 9.54139 14.5 9.54483C14.5 9.54827 14.5 9.55171 14.5 9.55515C14.5 9.55859 14.5 9.56203 14.5 9.56547C14.5 9.5689 14.5 9.57234 14.5 9.57577C14.5 9.57921 14.5 9.58264 14.5 9.58607C14.5 9.5895 14.5 9.59293 14.5 9.59636C14.5 9.59979 14.5 9.60322 14.5 9.60664C14.5 9.61007 14.5 9.61349 14.5 9.61692C14.5 9.62034 14.5 9.62376 14.5 9.62719C14.5 9.63061 14.5 9.63403 14.5 9.63744C14.5 9.64086 14.5 9.64428 14.5 9.64769C14.5 9.65111 14.5 9.65452 14.5 9.65794C14.5 9.66135 14.5 9.66476 14.5 9.66817C14.5 9.67158 14.5 9.67499 14.5 9.6784C14.5 9.68181 14.5 9.68521 14.5 9.68862C14.5 9.69202 14.5 9.69542 14.5 9.69883C14.5 9.70223 14.5 9.70563 14.5 9.70903C14.5 9.71243 14.5 9.71582 14.5 9.71922C14.5 9.72262 14.5 9.72601 14.5 9.72941C14.5 9.7328 14.5 9.73619 14.5 9.73958C14.5 9.74297 14.5 9.74636 14.5 9.74975C14.5 9.75314 14.5 9.75652 14.5 9.75991C14.5 9.76329 14.5 9.76668 14.5 9.77006C14.5 9.77344 14.5 9.77682 14.5 9.7802C14.5 9.78358 14.5 9.78696 14.5 9.79034C14.5 9.79371 14.5 9.79709 14.5 9.80046C14.5 9.80384 14.5 9.80721 14.5 9.81058C14.5 9.81395 14.5 9.81732 14.5 9.82069C14.5 9.82405 14.5 9.82742 14.5 9.83079C14.5 9.83415 14.5 9.83751 14.5 9.84088C14.5 9.84424 14.5 9.8476 14.5 9.85096C14.5 9.85432 14.5 9.85768 14.5 9.86103C14.5 9.86439 14.5 9.86774 14.5 9.8711C14.5 9.87445 14.5 9.8778 14.5 9.88115C14.5 9.8845 14.5 9.88785 14.5 9.8912C14.5 9.89455 14.5 9.89789 14.5 9.90124C14.5 9.90458 14.5 9.90792 14.5 9.91127C14.5 9.91461 14.5 9.91795 14.5 9.92129C14.5 9.92462 14.5 9.92796 14.5 9.9313C14.5 9.93463 14.5 9.93797 14.5 9.9413C14.5 9.94463 14.5 9.94796 14.5 9.95129C14.5 9.95462 14.5 9.95795 14.5 9.96127C14.5 9.9646 14.5 9.96792 14.5 9.97125C14.5 9.97457 14.5 9.97789 14.5 9.98121C14.5 9.98453 14.5 9.98785 14.5 9.99117C14.5 9.99449 14.5 9.9978 14.5 10.0011C14.5 10.0044 14.5 10.0077 14.5 10.0111C14.5 10.0144 14.5 10.0177 14.5 10.021C14.5 10.0243 14.5 10.0276 14.5 10.0309C14.5 10.0342 14.5 10.0375 14.5 10.0408C14.5 10.0441 14.5 10.0474 14.5 10.0507C14.5 10.054 14.5 10.0573 14.5 10.0606C14.5 10.0639 14.5 10.0672 14.5 10.0705C14.5 10.0738 14.5 10.0771 14.5 10.0803C14.5 10.0836 14.5 10.0869 14.5 10.0902C14.5 10.0935 14.5 10.0968 14.5 10.1001C14.5 10.1033 14.5 10.1066 14.5 10.1099C14.5 10.1132 14.5 10.1165 14.5 10.1197C14.5 10.123 14.5 10.1263 14.5 10.1296C14.5 10.1328 14.5 10.1361 14.5 10.1394C14.5 10.1426 14.5 10.1459 14.5 10.1492C14.5 10.1524 14.5 10.1557 14.5 10.159C14.5 10.1622 14.5 10.1655 14.5 10.1688C14.5 10.172 14.5 10.1753 14.5 10.1785C14.5 10.1818 14.5 10.185 14.5 10.1883C14.5 10.1915 14.5 10.1948 14.5 10.198C14.5 10.2013 14.5 10.2045 14.5 10.2078C14.5 10.211 14.5 10.2143 14.5 10.2175C14.5 10.2208 14.5 10.224 14.5 10.2272C14.5 10.2305 14.5 10.2337 14.5 10.237C14.5 10.2402 14.5 10.2434 14.5 10.2467C14.5 10.2499 14.5 10.2531 14.5 10.2564C14.5 10.2596 14.5 10.2628 14.5 10.266C14.5 10.2693 14.5 10.2725 14.5 10.2757C14.5 10.2789 14.5 10.2822 14.5 10.2854C14.5 10.2886 14.5 10.2918 14.5 10.295C14.5 10.2982 14.5 10.3015 14.5 10.3047C14.5 10.3079 14.5 10.3111 14.5 10.3143C14.5 10.3175 14.5 10.3207 14.5 10.3239C14.5 10.3271 14.5 10.3303 14.5 10.3335C14.5 10.3367 14.5 10.3399 14.5 10.3431C14.5 10.3463 14.5 10.3495 14.5 10.3527C14.5 10.3559 14.5 10.3591 14.5 10.3623C14.5 10.3655 14.5 10.3687 14.5 10.3719C14.5 10.3751 14.5 10.3783 14.5 10.3814C14.5 10.3846 14.5 10.3878 14.5 10.391C14.5 10.3942 14.5 10.3973 14.5 10.4005C14.5 10.4037 14.5 10.4069 14.5 10.41C14.5 10.4132 14.5 10.4164 14.5 10.4196C14.5 10.4227 14.5 10.4259 14.5 10.4291C14.5 10.4322 14.5 10.4354 14.5 10.4386C14.5 10.4417 14.5 10.4449 14.5 10.448C14.5 10.4512 14.5 10.4544 14.5 10.4575C14.5 10.4607 14.5 10.4638 14.5 10.467C14.5 10.4701 14.5 10.4733 14.5 10.4764C14.5 10.4796 14.5 10.4827 14.5 10.4859C14.5 10.489 14.5 10.4922 14.5 10.4953C14.5 10.4984 14.5 10.5016 14.5 10.5047C14.5 10.5079 14.5 10.511 14.5 10.5141C14.5 10.5173 14.5 10.5204 14.5 10.5235C14.5 10.5266 14.5 10.5298 14.5 10.5329C14.5 10.536 14.5 10.5392 14.5 10.5423C14.5 10.5454 14.5 10.5485 14.5 10.5516C14.5 10.5548 14.5 10.5579 14.5 10.561C14.5 10.5641 14.5 10.5672 14.5 10.5703C14.5 10.5734 14.5 10.5765 14.5 10.5797C14.5 10.5828 14.5 10.5859 14.5 10.589C14.5 10.5921 14.5 10.5952 14.5 10.5983C14.5 10.6014 14.5 10.6045 14.5 10.6076C14.5 10.6107 14.5 10.6138 14.5 10.6169C14.5 10.6199 14.5 10.623 14.5 10.6261C14.5 10.6292 14.5 10.6323 14.5 10.6354C14.5 10.6385 14.5 10.6416 14.5 10.6446C14.5 10.6477 14.5 10.6508 14.5 10.6539C14.5 10.6569 14.5 10.66 14.5 10.6631C14.5 10.6662 14.5 10.6692 14.5 10.6723C14.5 10.6754 14.5 10.6784 14.5 10.6815C14.5 10.6846 14.5 10.6876 14.5 10.6907C14.5 10.6938 14.5 10.6968 14.5 10.6999C14.5 10.7029 14.5 10.706 14.5 10.709C14.5 10.7121 14.5 10.7151 14.5 10.7182C14.5 10.7212 14.5 10.7243 14.5 10.7273C14.5 10.7304 14.5 10.7334 14.5 10.7365C14.5 10.7395 14.5 10.7425 14.5 10.7456C14.5 10.7486 14.5 10.7517 14.5 10.7547C14.5 10.7577 14.5 10.7608 14.5 10.7638C14.5 10.7668 14.5 10.7698 14.5 10.7729C14.5 10.7759 14.5 10.7789 14.5 10.7819C14.5 10.785 14.5 10.788 14.5 10.791C14.5 10.794 14.5 10.797 14.5 10.8C14.5 10.8031 14.5 10.8061 14.5 10.8091C14.5 10.8121 14.5 10.8151 14.5 10.8181C14.5 10.8211 14.5 10.8241 14.5 10.8271C14.5 10.8301 14.5 10.8331 14.5 10.8361C14.5 10.8391 14.5 10.8421 14.5 10.8451C14.5 10.8481 14.5 10.8511 14.5 10.8541C14.5 10.8571 14.5 10.86 14.5 10.863C14.5 10.866 14.5 10.869 14.5 10.872C14.5 10.875 14.5 10.8779 14.5 10.8809C14.5 10.8839 14.5 10.8869 14.5 10.8898C14.5 10.8928 14.5 10.8958 14.5 10.8987C14.5 10.9017 14.5 10.9047 14.5 10.9076C14.5 10.9106 14.5 10.9136 14.5 10.9165C14.5 10.9195 14.5 10.9224 14.5 10.9254C14.5 10.9284 14.5 10.9313 14.5 10.9343C14.5 10.9372 14.5 10.9402 14.5 10.9431C14.5 10.9461 14.5 10.949 14.5 10.9519C14.5 10.9549 14.5 10.9578 14.5 10.9608C14.5 10.9637 14.5 10.9666 14.5 10.9696C14.5 10.9725 14.5 10.9754 14.5 10.9784C14.5 10.9813 14.5 10.9842 14.5 10.9872C14.5 10.9901 14.5 10.993 14.5 10.9959C14.5 10.9988 14.5 11.0018 14.5 11.0047C14.5 11.0076 14.5 11.0105 14.5 11.0134C14.5 11.0163 14.5 11.0193 14.5 11.0222C14.5 11.0251 14.5 11.028 14.5 11.0309C14.5 11.0338 14.5 11.0367 14.5 11.0396C14.5 11.0425 14.5 11.0454 14.5 11.0483C14.5 11.0512 14.5 11.0541 14.5 11.057C14.5 11.0598 14.5 11.0627 14.5 11.0656C14.5 11.0685 14.5 11.0714 14.5 11.0743C14.5 11.0772 14.5 11.08 14.5 11.0829C14.5 11.0858 14.5 11.0887 14.5 11.0915C14.5 11.0944 14.5 11.0973 14.5 11.1002C14.5 11.103 14.5 11.1059 14.5 11.1088C14.5 11.1116 14.5 11.1145 14.5 11.1173C14.5 11.1202 14.5 11.1231 14.5 11.1259C14.5 11.1288 14.5 11.1316 14.5 11.1345C14.5 11.1373 14.5 11.1402 14.5 11.143C14.5 11.1459 14.5 11.1487 14.5 11.1516C14.5 11.1544 14.5 11.1572 14.5 11.1601C14.5 11.1629 14.5 11.1657 14.5 11.1686C14.5 11.1714 14.5 11.1742 14.5 11.1771C14.5 11.1799 14.5 11.1827 14.5 11.1856C14.5 11.1884 14.5 11.1912 14.5 11.194C14.5 11.1968 14.5 11.1997 14.5 11.2025C14.5 11.2053 14.5 11.2081 14.5 11.2109C14.5 11.2137 14.5 11.2165 14.5 11.2193C14.5 11.2221 14.5 11.2249 14.5 11.2277C14.5 11.2305 14.5 11.2333 14.5 11.2361C14.5 11.2389 14.5 11.2417 14.5 11.2445C14.5 11.2473 14.5 11.2501 14.5 11.2529C14.5 11.2557 14.5 11.2585 14.5 11.2612C14.5 11.264 14.5 11.2668 14.5 11.2696C14.5 11.2724 14.5 11.2751 14.5 11.2779C14.5 11.2807 14.5 11.2835 14.5 11.2862C14.5 11.289 14.5 11.2918 14.5 11.2945C14.5 11.2973 14.5 11.3 14.5 11.3028C14.5 11.3056 14.5 11.3083 14.5 11.3111C14.5 11.3138 14.5 11.3166 14.5 11.3193C14.5 11.3221 14.5 11.3248 14.5 11.3276C14.5 11.3303 14.5 11.3331 14.5 11.3358C14.5 11.3385 14.5 11.3413 14.5 11.344C14.5 11.3467 14.5 11.3495 14.5 11.3522C14.5 11.3549 14.5 11.3577 14.5 11.3604C14.5 11.3631 14.5 11.3658 14.5 11.3686C14.5 11.3713 14.5 11.374 14.5 11.3767C14.5 11.3794 14.5 11.3821 14.5 11.3849C14.5 11.3876 14.5 11.3903 14.5 11.393C14.5 11.3957 14.5 11.3984 14.5 11.4011C14.5 11.4038 14.5 11.4065 14.5 11.4092C14.5 11.4119 14.5 11.4146 14.5 11.4173C14.5 11.42 14.5 11.4227 14.5 11.4253C14.5 11.428 14.5 11.4307 14.5 11.4334C14.5 11.4361 14.5 11.4388 14.5 11.4414C14.5 11.4441 14.5 11.4468 14.5 11.4495C14.5 11.4521 14.5 11.4548 14.5 11.4575C14.5 11.4601 14.5 11.4628 14.5 11.4655C14.5 11.4681 14.5 11.4708 14.5 11.4734C14.5 11.4761 14.5 11.4788 14.5 11.4814C14.5 11.4841 14.5 11.4867 14.5 11.4894C14.5 11.492 14.5 11.4947 14.5 11.4973C14.5 11.4999 14.5 11.5026 14.5 11.5052C14.5 11.5079 14.5 11.5105 14.5 11.5131C14.5 11.5158 14.5 11.5184 14.5 11.521C14.5 11.5236 14.5 11.5263 14.5 11.5289C14.5 11.5315 14.5 11.5341 14.5 11.5367C14.5 11.5394 14.5 11.542 14.5 11.5446C14.5 11.5472 14.5 11.5498 14.5 11.5524C14.5 11.555 14.5 11.5576 14.5 11.5602C14.5 11.5628 14.5 11.5654 14.5 11.568C14.5 11.5706 14.5 11.5732 14.5 11.5758C14.5 11.5784 14.5 11.581 14.5 11.5836C14.5 11.5862 14.5 11.5888 14.5 11.5913C14.5 11.5939 14.5 11.5965 14.5 11.5991C14.5 11.6017 14.5 11.6042 14.5 11.6068C14.5 11.6094 14.5 11.6119 14.5 11.6145C14.5 11.6171 14.5 11.6196 14.5 11.6222C14.5 11.6248 14.5 11.6273 14.5 11.6299C14.5 11.6324 14.5 11.635 14.5 11.6375C14.5 11.6401 14.5 11.6426 14.5 11.6452C14.5 11.6477 14.5 11.6503 14.5 11.6528C14.5 11.6554 14.5 11.6579 14.5 11.6604C14.5 11.663 14.5 11.6655 14.5 11.668C14.5 11.6706 14.5 11.6731 14.5 11.6756C14.5 11.6781 14.5 11.6807 14.5 11.6832C14.5 11.6857 14.5 11.6882 14.5 11.6907C14.5 11.6932 14.5 11.6958 14.5 11.6983C14.5 11.7008 14.5 11.7033 14.5 11.7058C14.5 11.7083 14.5 11.7108 14.5 11.7133C14.5 11.7158 14.5 11.7183 14.5 11.7208C14.5 11.7233 14.5 11.7258 14.5 11.7282C14.5 11.7307 14.5 11.7332 14.5 11.7357C14.5 11.7382 14.5 11.7407 14.5 11.7431C14.5 11.7456 14.5 11.7481 14.5 11.7506C14.5 11.753 14.5 11.7555 14.5 11.758C14.5 11.7604 14.5 11.7629 14.5 11.7654C14.5 11.7678 14.5 11.7703 14.5 11.7727C14.5 11.7752 14.5 11.7776 14.5 11.7801C14.5 11.7825 14.5 11.785 14.5 11.7874C14.5 11.7899 14.5 11.7923 14.5 11.7948C14.5 11.7972 14.5 11.7996 14.5 11.8021C14.5 11.8045 14.5 11.8069 14.5 11.8094C14.5 11.8118 14.5 11.8142 14.5 11.8166C14.5 11.8191 14.5 11.8215 14.5 11.8239C14.5 11.8263 14.5 11.8287 14.5 11.8311C14.5 11.8336 14.5 11.836 14.5 11.8384C14.5 11.8408 14.5 11.8432 14.5 11.8456C14.5 11.848 14.5 11.8504 14.5 11.8528C14.5 11.8552 14.5 11.8576 14.5 11.86C14.5 11.8624 14.5 11.8647 14.5 11.8671C14.5 11.8695 14.5 11.8719 14.5 11.8743C14.5 11.8766 14.5 11.879 14.5 11.8814C14.5 11.8838 14.5 11.8861 14.5 11.8885C14.5 11.8909 14.5 11.8932 14.5 11.8956C14.5 11.898 14.5 11.9003 14.5 11.9027C14.5 11.905 14.5 11.9074 14.5 11.9097C14.5 11.9121 14.5 11.9144 14.5 11.9168C14.5 11.9191 14.5 11.9215 14.5 11.9238C14.5 11.9262 14.5 11.9285 14.5 11.9308C14.5 11.9332 14.5 11.9355 14.5 11.9378C14.5 11.9402 14.5 11.9425 14.5 11.9448C14.5 11.9471 14.5 11.9494 14.5 11.9518C14.5 11.9541 14.5 11.9564 14.5 11.9587C14.5 11.961 14.5 11.9633 14.5 11.9656C14.5 11.9679 14.5 11.9702 14.5 11.9725C14.5 11.9748 14.5 11.9771 14.5 11.9794C14.5 11.9817 14.5 11.984 14.5 11.9863C14.5 11.9886 14.5 11.9909 14.5 11.9932C14.5 11.9954 14.5 11.9977 14.5 12H15.5C15.5 11.9977 15.5 11.9954 15.5 11.9932C15.5 11.9909 15.5 11.9886 15.5 11.9863C15.5 11.984 15.5 11.9817 15.5 11.9794C15.5 11.9771 15.5 11.9748 15.5 11.9725C15.5 11.9702 15.5 11.9679 15.5 11.9656C15.5 11.9633 15.5 11.961 15.5 11.9587C15.5 11.9564 15.5 11.9541 15.5 11.9518C15.5 11.9494 15.5 11.9471 15.5 11.9448C15.5 11.9425 15.5 11.9402 15.5 11.9378C15.5 11.9355 15.5 11.9332 15.5 11.9308C15.5 11.9285 15.5 11.9262 15.5 11.9238C15.5 11.9215 15.5 11.9191 15.5 11.9168C15.5 11.9144 15.5 11.9121 15.5 11.9097C15.5 11.9074 15.5 11.905 15.5 11.9027C15.5 11.9003 15.5 11.898 15.5 11.8956C15.5 11.8932 15.5 11.8909 15.5 11.8885C15.5 11.8861 15.5 11.8838 15.5 11.8814C15.5 11.879 15.5 11.8766 15.5 11.8743C15.5 11.8719 15.5 11.8695 15.5 11.8671C15.5 11.8647 15.5 11.8624 15.5 11.86C15.5 11.8576 15.5 11.8552 15.5 11.8528C15.5 11.8504 15.5 11.848 15.5 11.8456C15.5 11.8432 15.5 11.8408 15.5 11.8384C15.5 11.836 15.5 11.8336 15.5 11.8311C15.5 11.8287 15.5 11.8263 15.5 11.8239C15.5 11.8215 15.5 11.8191 15.5 11.8166C15.5 11.8142 15.5 11.8118 15.5 11.8094C15.5 11.8069 15.5 11.8045 15.5 11.8021C15.5 11.7996 15.5 11.7972 15.5 11.7948C15.5 11.7923 15.5 11.7899 15.5 11.7874C15.5 11.785 15.5 11.7825 15.5 11.7801C15.5 11.7776 15.5 11.7752 15.5 11.7727C15.5 11.7703 15.5 11.7678 15.5 11.7654C15.5 11.7629 15.5 11.7604 15.5 11.758C15.5 11.7555 15.5 11.753 15.5 11.7506C15.5 11.7481 15.5 11.7456 15.5 11.7431C15.5 11.7407 15.5 11.7382 15.5 11.7357C15.5 11.7332 15.5 11.7307 15.5 11.7282C15.5 11.7258 15.5 11.7233 15.5 11.7208C15.5 11.7183 15.5 11.7158 15.5 11.7133C15.5 11.7108 15.5 11.7083 15.5 11.7058C15.5 11.7033 15.5 11.7008 15.5 11.6983C15.5 11.6958 15.5 11.6932 15.5 11.6907C15.5 11.6882 15.5 11.6857 15.5 11.6832C15.5 11.6807 15.5 11.6781 15.5 11.6756C15.5 11.6731 15.5 11.6706 15.5 11.668C15.5 11.6655 15.5 11.663 15.5 11.6604C15.5 11.6579 15.5 11.6554 15.5 11.6528C15.5 11.6503 15.5 11.6477 15.5 11.6452C15.5 11.6426 15.5 11.6401 15.5 11.6375C15.5 11.635 15.5 11.6324 15.5 11.6299C15.5 11.6273 15.5 11.6248 15.5 11.6222C15.5 11.6196 15.5 11.6171 15.5 11.6145C15.5 11.6119 15.5 11.6094 15.5 11.6068C15.5 11.6042 15.5 11.6017 15.5 11.5991C15.5 11.5965 15.5 11.5939 15.5 11.5913C15.5 11.5888 15.5 11.5862 15.5 11.5836C15.5 11.581 15.5 11.5784 15.5 11.5758C15.5 11.5732 15.5 11.5706 15.5 11.568C15.5 11.5654 15.5 11.5628 15.5 11.5602C15.5 11.5576 15.5 11.555 15.5 11.5524C15.5 11.5498 15.5 11.5472 15.5 11.5446C15.5 11.542 15.5 11.5394 15.5 11.5367C15.5 11.5341 15.5 11.5315 15.5 11.5289C15.5 11.5263 15.5 11.5236 15.5 11.521C15.5 11.5184 15.5 11.5158 15.5 11.5131C15.5 11.5105 15.5 11.5079 15.5 11.5052C15.5 11.5026 15.5 11.4999 15.5 11.4973C15.5 11.4947 15.5 11.492 15.5 11.4894C15.5 11.4867 15.5 11.4841 15.5 11.4814C15.5 11.4788 15.5 11.4761 15.5 11.4734C15.5 11.4708 15.5 11.4681 15.5 11.4655C15.5 11.4628 15.5 11.4601 15.5 11.4575C15.5 11.4548 15.5 11.4521 15.5 11.4495C15.5 11.4468 15.5 11.4441 15.5 11.4414C15.5 11.4388 15.5 11.4361 15.5 11.4334C15.5 11.4307 15.5 11.428 15.5 11.4253C15.5 11.4227 15.5 11.42 15.5 11.4173C15.5 11.4146 15.5 11.4119 15.5 11.4092C15.5 11.4065 15.5 11.4038 15.5 11.4011C15.5 11.3984 15.5 11.3957 15.5 11.393C15.5 11.3903 15.5 11.3876 15.5 11.3849C15.5 11.3821 15.5 11.3794 15.5 11.3767C15.5 11.374 15.5 11.3713 15.5 11.3686C15.5 11.3658 15.5 11.3631 15.5 11.3604C15.5 11.3577 15.5 11.3549 15.5 11.3522C15.5 11.3495 15.5 11.3467 15.5 11.344C15.5 11.3413 15.5 11.3385 15.5 11.3358C15.5 11.3331 15.5 11.3303 15.5 11.3276C15.5 11.3248 15.5 11.3221 15.5 11.3193C15.5 11.3166 15.5 11.3138 15.5 11.3111C15.5 11.3083 15.5 11.3056 15.5 11.3028C15.5 11.3 15.5 11.2973 15.5 11.2945C15.5 11.2918 15.5 11.289 15.5 11.2862C15.5 11.2835 15.5 11.2807 15.5 11.2779C15.5 11.2751 15.5 11.2724 15.5 11.2696C15.5 11.2668 15.5 11.264 15.5 11.2612C15.5 11.2585 15.5 11.2557 15.5 11.2529C15.5 11.2501 15.5 11.2473 15.5 11.2445C15.5 11.2417 15.5 11.2389 15.5 11.2361C15.5 11.2333 15.5 11.2305 15.5 11.2277C15.5 11.2249 15.5 11.2221 15.5 11.2193C15.5 11.2165 15.5 11.2137 15.5 11.2109C15.5 11.2081 15.5 11.2053 15.5 11.2025C15.5 11.1997 15.5 11.1968 15.5 11.194C15.5 11.1912 15.5 11.1884 15.5 11.1856C15.5 11.1827 15.5 11.1799 15.5 11.1771C15.5 11.1742 15.5 11.1714 15.5 11.1686C15.5 11.1657 15.5 11.1629 15.5 11.1601C15.5 11.1572 15.5 11.1544 15.5 11.1516C15.5 11.1487 15.5 11.1459 15.5 11.143C15.5 11.1402 15.5 11.1373 15.5 11.1345C15.5 11.1316 15.5 11.1288 15.5 11.1259C15.5 11.1231 15.5 11.1202 15.5 11.1173C15.5 11.1145 15.5 11.1116 15.5 11.1088C15.5 11.1059 15.5 11.103 15.5 11.1002C15.5 11.0973 15.5 11.0944 15.5 11.0915C15.5 11.0887 15.5 11.0858 15.5 11.0829C15.5 11.08 15.5 11.0772 15.5 11.0743C15.5 11.0714 15.5 11.0685 15.5 11.0656C15.5 11.0627 15.5 11.0598 15.5 11.057C15.5 11.0541 15.5 11.0512 15.5 11.0483C15.5 11.0454 15.5 11.0425 15.5 11.0396C15.5 11.0367 15.5 11.0338 15.5 11.0309C15.5 11.028 15.5 11.0251 15.5 11.0222C15.5 11.0193 15.5 11.0163 15.5 11.0134C15.5 11.0105 15.5 11.0076 15.5 11.0047C15.5 11.0018 15.5 10.9988 15.5 10.9959C15.5 10.993 15.5 10.9901 15.5 10.9872C15.5 10.9842 15.5 10.9813 15.5 10.9784C15.5 10.9754 15.5 10.9725 15.5 10.9696C15.5 10.9666 15.5 10.9637 15.5 10.9608C15.5 10.9578 15.5 10.9549 15.5 10.9519C15.5 10.949 15.5 10.9461 15.5 10.9431C15.5 10.9402 15.5 10.9372 15.5 10.9343C15.5 10.9313 15.5 10.9284 15.5 10.9254C15.5 10.9224 15.5 10.9195 15.5 10.9165C15.5 10.9136 15.5 10.9106 15.5 10.9076C15.5 10.9047 15.5 10.9017 15.5 10.8987C15.5 10.8958 15.5 10.8928 15.5 10.8898C15.5 10.8869 15.5 10.8839 15.5 10.8809C15.5 10.8779 15.5 10.875 15.5 10.872C15.5 10.869 15.5 10.866 15.5 10.863C15.5 10.86 15.5 10.8571 15.5 10.8541C15.5 10.8511 15.5 10.8481 15.5 10.8451C15.5 10.8421 15.5 10.8391 15.5 10.8361C15.5 10.8331 15.5 10.8301 15.5 10.8271C15.5 10.8241 15.5 10.8211 15.5 10.8181C15.5 10.8151 15.5 10.8121 15.5 10.8091C15.5 10.8061 15.5 10.8031 15.5 10.8C15.5 10.797 15.5 10.794 15.5 10.791C15.5 10.788 15.5 10.785 15.5 10.7819C15.5 10.7789 15.5 10.7759 15.5 10.7729C15.5 10.7698 15.5 10.7668 15.5 10.7638C15.5 10.7608 15.5 10.7577 15.5 10.7547C15.5 10.7517 15.5 10.7486 15.5 10.7456C15.5 10.7425 15.5 10.7395 15.5 10.7365C15.5 10.7334 15.5 10.7304 15.5 10.7273C15.5 10.7243 15.5 10.7212 15.5 10.7182C15.5 10.7151 15.5 10.7121 15.5 10.709C15.5 10.706 15.5 10.7029 15.5 10.6999C15.5 10.6968 15.5 10.6938 15.5 10.6907C15.5 10.6876 15.5 10.6846 15.5 10.6815C15.5 10.6784 15.5 10.6754 15.5 10.6723C15.5 10.6692 15.5 10.6662 15.5 10.6631C15.5 10.66 15.5 10.6569 15.5 10.6539C15.5 10.6508 15.5 10.6477 15.5 10.6446C15.5 10.6416 15.5 10.6385 15.5 10.6354C15.5 10.6323 15.5 10.6292 15.5 10.6261C15.5 10.623 15.5 10.6199 15.5 10.6169C15.5 10.6138 15.5 10.6107 15.5 10.6076C15.5 10.6045 15.5 10.6014 15.5 10.5983C15.5 10.5952 15.5 10.5921 15.5 10.589C15.5 10.5859 15.5 10.5828 15.5 10.5797C15.5 10.5765 15.5 10.5734 15.5 10.5703C15.5 10.5672 15.5 10.5641 15.5 10.561C15.5 10.5579 15.5 10.5548 15.5 10.5516C15.5 10.5485 15.5 10.5454 15.5 10.5423C15.5 10.5392 15.5 10.536 15.5 10.5329C15.5 10.5298 15.5 10.5266 15.5 10.5235C15.5 10.5204 15.5 10.5173 15.5 10.5141C15.5 10.511 15.5 10.5079 15.5 10.5047C15.5 10.5016 15.5 10.4984 15.5 10.4953C15.5 10.4922 15.5 10.489 15.5 10.4859C15.5 10.4827 15.5 10.4796 15.5 10.4764C15.5 10.4733 15.5 10.4701 15.5 10.467C15.5 10.4638 15.5 10.4607 15.5 10.4575C15.5 10.4544 15.5 10.4512 15.5 10.448C15.5 10.4449 15.5 10.4417 15.5 10.4386C15.5 10.4354 15.5 10.4322 15.5 10.4291C15.5 10.4259 15.5 10.4227 15.5 10.4196C15.5 10.4164 15.5 10.4132 15.5 10.41C15.5 10.4069 15.5 10.4037 15.5 10.4005C15.5 10.3973 15.5 10.3942 15.5 10.391C15.5 10.3878 15.5 10.3846 15.5 10.3814C15.5 10.3783 15.5 10.3751 15.5 10.3719C15.5 10.3687 15.5 10.3655 15.5 10.3623C15.5 10.3591 15.5 10.3559 15.5 10.3527C15.5 10.3495 15.5 10.3463 15.5 10.3431C15.5 10.3399 15.5 10.3367 15.5 10.3335C15.5 10.3303 15.5 10.3271 15.5 10.3239C15.5 10.3207 15.5 10.3175 15.5 10.3143C15.5 10.3111 15.5 10.3079 15.5 10.3047C15.5 10.3015 15.5 10.2982 15.5 10.295C15.5 10.2918 15.5 10.2886 15.5 10.2854C15.5 10.2822 15.5 10.2789 15.5 10.2757C15.5 10.2725 15.5 10.2693 15.5 10.266C15.5 10.2628 15.5 10.2596 15.5 10.2564C15.5 10.2531 15.5 10.2499 15.5 10.2467C15.5 10.2434 15.5 10.2402 15.5 10.237C15.5 10.2337 15.5 10.2305 15.5 10.2272C15.5 10.224 15.5 10.2208 15.5 10.2175C15.5 10.2143 15.5 10.211 15.5 10.2078C15.5 10.2045 15.5 10.2013 15.5 10.198C15.5 10.1948 15.5 10.1915 15.5 10.1883C15.5 10.185 15.5 10.1818 15.5 10.1785C15.5 10.1753 15.5 10.172 15.5 10.1688C15.5 10.1655 15.5 10.1622 15.5 10.159C15.5 10.1557 15.5 10.1524 15.5 10.1492C15.5 10.1459 15.5 10.1426 15.5 10.1394C15.5 10.1361 15.5 10.1328 15.5 10.1296C15.5 10.1263 15.5 10.123 15.5 10.1197C15.5 10.1165 15.5 10.1132 15.5 10.1099C15.5 10.1066 15.5 10.1033 15.5 10.1001C15.5 10.0968 15.5 10.0935 15.5 10.0902C15.5 10.0869 15.5 10.0836 15.5 10.0803C15.5 10.0771 15.5 10.0738 15.5 10.0705C15.5 10.0672 15.5 10.0639 15.5 10.0606C15.5 10.0573 15.5 10.054 15.5 10.0507C15.5 10.0474 15.5 10.0441 15.5 10.0408C15.5 10.0375 15.5 10.0342 15.5 10.0309C15.5 10.0276 15.5 10.0243 15.5 10.021C15.5 10.0177 15.5 10.0144 15.5 10.0111C15.5 10.0077 15.5 10.0044 15.5 10.0011C15.5 9.9978 15.5 9.99449 15.5 9.99117C15.5 9.98785 15.5 9.98453 15.5 9.98121C15.5 9.97789 15.5 9.97457 15.5 9.97125C15.5 9.96792 15.5 9.9646 15.5 9.96127C15.5 9.95795 15.5 9.95462 15.5 9.95129C15.5 9.94796 15.5 9.94463 15.5 9.9413C15.5 9.93797 15.5 9.93463 15.5 9.9313C15.5 9.92796 15.5 9.92462 15.5 9.92129C15.5 9.91795 15.5 9.91461 15.5 9.91127C15.5 9.90792 15.5 9.90458 15.5 9.90124C15.5 9.89789 15.5 9.89455 15.5 9.8912C15.5 9.88785 15.5 9.8845 15.5 9.88115C15.5 9.8778 15.5 9.87445 15.5 9.8711C15.5 9.86774 15.5 9.86439 15.5 9.86103C15.5 9.85768 15.5 9.85432 15.5 9.85096C15.5 9.8476 15.5 9.84424 15.5 9.84088C15.5 9.83751 15.5 9.83415 15.5 9.83079C15.5 9.82742 15.5 9.82405 15.5 9.82069C15.5 9.81732 15.5 9.81395 15.5 9.81058C15.5 9.80721 15.5 9.80384 15.5 9.80046C15.5 9.79709 15.5 9.79371 15.5 9.79034C15.5 9.78696 15.5 9.78358 15.5 9.7802C15.5 9.77682 15.5 9.77344 15.5 9.77006C15.5 9.76668 15.5 9.76329 15.5 9.75991C15.5 9.75652 15.5 9.75314 15.5 9.74975C15.5 9.74636 15.5 9.74297 15.5 9.73958C15.5 9.73619 15.5 9.7328 15.5 9.72941C15.5 9.72601 15.5 9.72262 15.5 9.71922C15.5 9.71582 15.5 9.71243 15.5 9.70903C15.5 9.70563 15.5 9.70223 15.5 9.69883C15.5 9.69542 15.5 9.69202 15.5 9.68862C15.5 9.68521 15.5 9.68181 15.5 9.6784C15.5 9.67499 15.5 9.67158 15.5 9.66817C15.5 9.66476 15.5 9.66135 15.5 9.65794C15.5 9.65452 15.5 9.65111 15.5 9.64769C15.5 9.64428 15.5 9.64086 15.5 9.63744C15.5 9.63403 15.5 9.63061 15.5 9.62719C15.5 9.62376 15.5 9.62034 15.5 9.61692C15.5 9.61349 15.5 9.61007 15.5 9.60664C15.5 9.60322 15.5 9.59979 15.5 9.59636C15.5 9.59293 15.5 9.5895 15.5 9.58607C15.5 9.58264 15.5 9.57921 15.5 9.57577C15.5 9.57234 15.5 9.5689 15.5 9.56547C15.5 9.56203 15.5 9.55859 15.5 9.55515C15.5 9.55171 15.5 9.54827 15.5 9.54483C15.5 9.54139 15.5 9.53794 15.5 9.5345C15.5 9.53105 15.5 9.52761 15.5 9.52416C15.5 9.52071 15.5 9.51727 15.5 9.51382C15.5 9.51037 15.5 9.50692 15.5 9.50346C15.5 9.50001 15.5 9.49656 15.5 9.4931C15.5 9.48965 15.5 9.48619 15.5 9.48273C15.5 9.47928 15.5 9.47582 15.5 9.47236C15.5 9.4689 15.5 9.46544 15.5 9.46198C15.5 9.45851 15.5 9.45505 15.5 9.45158C15.5 9.44812 15.5 9.44465 15.5 9.44119C15.5 9.43772 15.5 9.43425 15.5 9.43078C15.5 9.42731 15.5 9.42384 15.5 9.42037C15.5 9.4169 15.5 9.41342 15.5 9.40995C15.5 9.40647 15.5 9.403 15.5 9.39952C15.5 9.39604 15.5 9.39256 15.5 9.38908C15.5 9.38561 15.5 9.38212 15.5 9.37864C15.5 9.37516 15.5 9.37168 15.5 9.36819C15.5 9.36471 15.5 9.36122 15.5 9.35774C15.5 9.35425 15.5 9.35076 15.5 9.34727C15.5 9.34378 15.5 9.34029 15.5 9.3368C15.5 9.33331 15.5 9.32982 15.5 9.32632C15.5 9.32283 15.5 9.31933 15.5 9.31584C15.5 9.31234 15.5 9.30885 15.5 9.30535C15.5 9.30185 15.5 9.29835 15.5 9.29485C15.5 9.29135 15.5 9.28784 15.5 9.28434C15.5 9.28084 15.5 9.27733 15.5 9.27383C15.5 9.27032 15.5 9.26682 15.5 9.26331C15.5 9.2598 15.5 9.25629 15.5 9.25278C15.5 9.24927 15.5 9.24576 15.5 9.24225C15.5 9.23874 15.5 9.23522 15.5 9.23171C15.5 9.22819 15.5 9.22468 15.5 9.22116C15.5 9.21764 15.5 9.21413 15.5 9.21061C15.5 9.20709 15.5 9.20357 15.5 9.20005C15.5 9.19653 15.5 9.193 15.5 9.18948C15.5 9.18596 15.5 9.18243 15.5 9.17891C15.5 9.17538 15.5 9.17185 15.5 9.16833C15.5 9.1648 15.5 9.16127 15.5 9.15774C15.5 9.15421 15.5 9.15068 15.5 9.14715C15.5 9.14361 15.5 9.14008 15.5 9.13655C15.5 9.13301 15.5 9.12948 15.5 9.12594C15.5 9.1224 15.5 9.11887 15.5 9.11533C15.5 9.11179 15.5 9.10825 15.5 9.10471C15.5 9.10117 15.5 9.09763 15.5 9.09408C15.5 9.09054 15.5 9.087 15.5 9.08345C15.5 9.07991 15.5 9.07636 15.5 9.07281C15.5 9.06927 15.5 9.06572 15.5 9.06217C15.5 9.05862 15.5 9.05507 15.5 9.05152C15.5 9.04797 15.5 9.04442 15.5 9.04086C15.5 9.03731 15.5 9.03376 15.5 9.0302C15.5 9.02665 15.5 9.02309 15.5 9.01953C15.5 9.01597 15.5 9.01242 15.5 9.00886C15.5 9.0053 15.5 9.00174 15.5 8.99818C15.5 8.99462 15.5 8.99105 15.5 8.98749C15.5 8.98393 15.5 8.98036 15.5 8.9768C15.5 8.97323 15.5 8.96967 15.5 8.9661C15.5 8.96253 15.5 8.95896 15.5 8.95539C15.5 8.95183 15.5 8.94826 15.5 8.94468C15.5 8.94111 15.5 8.93754 15.5 8.93397C15.5 8.93039 15.5 8.92682 15.5 8.92325C15.5 8.91967 15.5 8.9161 15.5 8.91252C15.5 8.90894 15.5 8.90536 15.5 8.90178C15.5 8.89821 15.5 8.89463 15.5 8.89105C15.5 8.88747 15.5 8.88388 15.5 8.8803C15.5 8.87672 15.5 8.87313 15.5 8.86955C15.5 8.86597 15.5 8.86238 15.5 8.85879C15.5 8.85521 15.5 8.85162 15.5 8.84803C15.5 8.84444 15.5 8.84086 15.5 8.83727C15.5 8.83368 15.5 8.83008 15.5 8.82649C15.5 8.8229 15.5 8.81931 15.5 8.81572C15.5 8.81212 15.5 8.80853 15.5 8.80493C15.5 8.80134 15.5 8.79774 15.5 8.79414C15.5 8.79055 15.5 8.78695 15.5 8.78335C15.5 8.77975 15.5 8.77615 15.5 8.77255C15.5 8.76895 15.5 8.76535 15.5 8.76174C15.5 8.75814 15.5 8.75454 15.5 8.75093C15.5 8.74733 15.5 8.74373 15.5 8.74012C15.5 8.73651 15.5 8.73291 15.5 8.7293C15.5 8.72569 15.5 8.72208 15.5 8.71847C15.5 8.71486 15.5 8.71125 15.5 8.70764C15.5 8.70403 15.5 8.70042 15.5 8.69681C15.5 8.69319 15.5 8.68958 15.5 8.68597C15.5 8.68235 15.5 8.67874 15.5 8.67512C15.5 8.6715 15.5 8.66789 15.5 8.66427C15.5 8.66065 15.5 8.65703 15.5 8.65341C15.5 8.6498 15.5 8.64617 15.5 8.64255C15.5 8.63893 15.5 8.63531 15.5 8.63169C15.5 8.62807 15.5 8.62444 15.5 8.62082C15.5 8.61719 15.5 8.61357 15.5 8.60994C15.5 8.60632 15.5 8.60269 15.5 8.59906C15.5 8.59544 15.5 8.59181 15.5 8.58818C15.5 8.58455 15.5 8.58092 15.5 8.57729C15.5 8.57366 15.5 8.57003 15.5 8.5664C15.5 8.56276 15.5 8.55913 15.5 8.5555C15.5 8.55186 15.5 8.54823 15.5 8.54459C15.5 8.54096 15.5 8.53732 15.5 8.53369C15.5 8.53005 15.5 8.52641 15.5 8.52277C15.5 8.51914 15.5 8.5155 15.5 8.51186C15.5 8.50822 15.5 8.50458 15.5 8.50094C15.5 8.4973 15.5 8.49365 15.5 8.49001C15.5 8.48637 15.5 8.48273 15.5 8.47908C15.5 8.47544 15.5 8.47179 15.5 8.46815C15.5 8.4645 15.5 8.46086 15.5 8.45721C15.5 8.45356 15.5 8.44991 15.5 8.44627C15.5 8.44262 15.5 8.43897 15.5 8.43532C15.5 8.43167 15.5 8.42802 15.5 8.42437C15.5 8.42072 15.5 8.41706 15.5 8.41341C15.5 8.40976 15.5 8.40611 15.5 8.40245C15.5 8.3988 15.5 8.39514 15.5 8.39149C15.5 8.38783 15.5 8.38418 15.5 8.38052C15.5 8.37686 15.5 8.37321 15.5 8.36955C15.5 8.36589 15.5 8.36223 15.5 8.35857C15.5 8.35491 15.5 8.35125 15.5 8.34759C15.5 8.34393 15.5 8.34027 15.5 8.33661C15.5 8.33295 15.5 8.32928 15.5 8.32562C15.5 8.32196 15.5 8.31829 15.5 8.31463C15.5 8.31096 15.5 8.3073 15.5 8.30363C15.5 8.29997 15.5 8.2963 15.5 8.29263C15.5 8.28897 15.5 8.2853 15.5 8.28163C15.5 8.27796 15.5 8.27429 15.5 8.27062C15.5 8.26695 15.5 8.26328 15.5 8.25961C15.5 8.25594 15.5 8.25227 15.5 8.2486C15.5 8.24493 15.5 8.24125 15.5 8.23758C15.5 8.23391 15.5 8.23023 15.5 8.22656C15.5 8.22288 15.5 8.21921 15.5 8.21553C15.5 8.21186 15.5 8.20818 15.5 8.2045C15.5 8.20083 15.5 8.19715 15.5 8.19347C15.5 8.18979 15.5 8.18612 15.5 8.18244C15.5 8.17876 15.5 8.17508 15.5 8.1714C15.5 8.16772 15.5 8.16404 15.5 8.16036C15.5 8.15667 15.5 8.15299 15.5 8.14931C15.5 8.14563 15.5 8.14194 15.5 8.13826C15.5 8.13458 15.5 8.13089 15.5 8.12721C15.5 8.12352 15.5 8.11984 15.5 8.11615C15.5 8.11247 15.5 8.10878 15.5 8.10509C15.5 8.10141 15.5 8.09772 15.5 8.09403C15.5 8.09034 15.5 8.08665 15.5 8.08297C15.5 8.07928 15.5 8.07559 15.5 8.0719C15.5 8.06821 15.5 8.06452 15.5 8.06083C15.5 8.05714 15.5 8.05344 15.5 8.04975C15.5 8.04606 15.5 8.04237 15.5 8.03867C15.5 8.03498 15.5 8.03129 15.5 8.02759C15.5 8.0239 15.5 8.0202 15.5 8.01651C15.5 8.01281 15.5 8.00912 15.5 8.00542C15.5 8.00173 15.5 7.99803 15.5 7.99433C15.5 7.99064 15.5 7.98694 15.5 7.98324C15.5 7.97954 15.5 7.97585 15.5 7.97215C15.5 7.96845 15.5 7.96475 15.5 7.96105C15.5 7.95735 15.5 7.95365 15.5 7.94995C15.5 7.94625 15.5 7.94255 15.5 7.93884C15.5 7.93514 15.5 7.93144 15.5 7.92774C15.5 7.92404 15.5 7.92033 15.5 7.91663C15.5 7.91293 15.5 7.90922 15.5 7.90552C15.5 7.90181 15.5 7.89811 15.5 7.8944C15.5 7.8907 15.5 7.88699 15.5 7.88329C15.5 7.87958 15.5 7.87588 15.5 7.87217C15.5 7.86846 15.5 7.86476 15.5 7.86105C15.5 7.85734 15.5 7.85363 15.5 7.84992C15.5 7.84622 15.5 7.84251 15.5 7.8388C15.5 7.83509 15.5 7.83138 15.5 7.82767C15.5 7.82396 15.5 7.82025 15.5 7.81654C15.5 7.81283 15.5 7.80912 15.5 7.80541C15.5 7.80169 15.5 7.79798 15.5 7.79427C15.5 7.79056 15.5 7.78684 15.5 7.78313C15.5 7.77942 15.5 7.77571 15.5 7.77199C15.5 7.76828 15.5 7.76456 15.5 7.76085C15.5 7.75713 15.5 7.75342 15.5 7.74971C15.5 7.74599 15.5 7.74227 15.5 7.73856C15.5 7.73484 15.5 7.73113 15.5 7.72741C15.5 7.72369 15.5 7.71998 15.5 7.71626C15.5 7.71254 15.5 7.70883 15.5 7.70511C15.5 7.70139 15.5 7.69767 15.5 7.69395C15.5 7.69023 15.5 7.68652 15.5 7.6828C15.5 7.67908 15.5 7.67536 15.5 7.67164C15.5 7.66792 15.5 7.6642 15.5 7.66048C15.5 7.65676 15.5 7.65304 15.5 7.64932C15.5 7.64559 15.5 7.64187 15.5 7.63815C15.5 7.63443 15.5 7.63071 15.5 7.62699C15.5 7.62326 15.5 7.61954 15.5 7.61582C15.5 7.6121 15.5 7.60837 15.5 7.60465C15.5 7.60093 15.5 7.5972 15.5 7.59348C15.5 7.58976 15.5 7.58603 15.5 7.58231C15.5 7.57858 15.5 7.57486 15.5 7.57113C15.5 7.56741 15.5 7.56368 15.5 7.55996C15.5 7.55623 15.5 7.55251 15.5 7.54878C15.5 7.54505 15.5 7.54133 15.5 7.5376C15.5 7.53388 15.5 7.53015 15.5 7.52642C15.5 7.5227 15.5 7.51897 15.5 7.51524C15.5 7.51151 15.5 7.50779 15.5 7.50406C15.5 7.50033 15.5 7.4966 15.5 7.49287C15.5 7.48915 15.5 7.48542 15.5 7.48169C15.5 7.47796 15.5 7.47423 15.5 7.4705C15.5 7.46677 15.5 7.46304 15.5 7.45931C15.5 7.45558 15.5 7.45185 15.5 7.44812C15.5 7.44439 15.5 7.44066 15.5 7.43693C15.5 7.4332 15.5 7.42947 15.5 7.42574C15.5 7.42201 15.5 7.41828 15.5 7.41455C15.5 7.41082 15.5 7.40709 15.5 7.40336C15.5 7.39962 15.5 7.39589 15.5 7.39216C15.5 7.38843 15.5 7.3847 15.5 7.38097C15.5 7.37723 15.5 7.3735 15.5 7.36977C15.5 7.36604 15.5 7.3623 15.5 7.35857C15.5 7.35484 15.5 7.35111 15.5 7.34737C15.5 7.34364 15.5 7.33991 15.5 7.33617C15.5 7.33244 15.5 7.32871 15.5 7.32497C15.5 7.32124 15.5 7.31751 15.5 7.31377C15.5 7.31004 15.5 7.3063 15.5 7.30257C15.5 7.29884 15.5 7.2951 15.5 7.29137C15.5 7.28763 15.5 7.2839 15.5 7.28016C15.5 7.27643 15.5 7.27269 15.5 7.26896C15.5 7.26522 15.5 7.26149 15.5 7.25775C15.5 7.25402 15.5 7.25028 15.5 7.24655C15.5 7.24281 15.5 7.23908 15.5 7.23534C15.5 7.23161 15.5 7.22787 15.5 7.22414C15.5 7.2204 15.5 7.21667 15.5 7.21293C15.5 7.20919 15.5 7.20546 15.5 7.20172C15.5 7.19799 15.5 7.19425 15.5 7.19052C15.5 7.18678 15.5 7.18304 15.5 7.17931C15.5 7.17557 15.5 7.17183 15.5 7.1681C15.5 7.16436 15.5 7.16063 15.5 7.15689C15.5 7.15315 15.5 7.14942 15.5 7.14568C15.5 7.14194 15.5 7.13821 15.5 7.13447C15.5 7.13073 15.5 7.127 15.5 7.12326C15.5 7.11952 15.5 7.11579 15.5 7.11205C15.5 7.10831 15.5 7.10458 15.5 7.10084C15.5 7.0971 15.5 7.09337 15.5 7.08963C15.5 7.08589 15.5 7.08216 15.5 7.07842C15.5 7.07468 15.5 7.07095 15.5 7.06721C15.5 7.06347 15.5 7.05974 15.5 7.056C15.5 7.05226 15.5 7.04853 15.5 7.04479C15.5 7.04105 15.5 7.03732 15.5 7.03358C15.5 7.02984 15.5 7.02611 15.5 7.02237C15.5 7.01863 15.5 7.0149 15.5 7.01116C15.5 7.00742 15.5 7.00369 15.5 6.99995H14.5ZM14.5 12C14.5 13.6215 15.0438 14.7301 15.6096 15.4373C15.8899 15.7878 16.1719 16.0352 16.3875 16.1969C16.4954 16.2778 16.5872 16.3377 16.6546 16.3786C16.6883 16.399 16.716 16.4148 16.7366 16.4261C16.7469 16.4318 16.7555 16.4364 16.7621 16.4399C16.7655 16.4416 16.7683 16.4431 16.7707 16.4443C16.7719 16.4449 16.773 16.4455 16.7739 16.446C16.7744 16.4462 16.7748 16.4464 16.7753 16.4466C16.7755 16.4467 16.7757 16.4469 16.7758 16.4469C16.7761 16.4471 16.7764 16.4472 17 16C17.2236 15.5528 17.2239 15.5529 17.2241 15.553C17.2242 15.5531 17.2244 15.5532 17.2246 15.5533C17.2249 15.5534 17.2251 15.5535 17.2253 15.5537C17.2258 15.5539 17.2262 15.5541 17.2264 15.5542C17.2268 15.5544 17.2268 15.5544 17.2264 15.5542C17.2255 15.5537 17.2228 15.5523 17.2185 15.5499C17.2098 15.5452 17.1945 15.5365 17.1736 15.5238C17.1316 15.4983 17.0671 15.4566 16.9875 15.3969C16.8281 15.2773 16.6101 15.0872 16.3904 14.8127C15.9562 14.2699 15.5 13.3785 15.5 12H14.5ZM17 15.5H1V16.5H17V15.5ZM1 16C1.22361 16.4472 1.22388 16.4471 1.22415 16.4469C1.22426 16.4469 1.22454 16.4467 1.22475 16.4466C1.22516 16.4464 1.2256 16.4462 1.22608 16.446C1.22702 16.4455 1.22809 16.4449 1.22929 16.4443C1.23167 16.4431 1.23454 16.4416 1.23787 16.4399C1.24455 16.4364 1.25311 16.4318 1.26342 16.4261C1.28404 16.4148 1.31172 16.399 1.34543 16.3786C1.4128 16.3377 1.50458 16.2778 1.6125 16.1969C1.82812 16.0352 2.11007 15.7878 2.39043 15.4373C2.95625 14.7301 3.5 13.6215 3.5 12H2.5C2.5 13.3785 2.04375 14.2699 1.60957 14.8127C1.38993 15.0872 1.17188 15.2773 1.0125 15.3969C0.932922 15.4566 0.868448 15.4983 0.826448 15.5238C0.805471 15.5365 0.790177 15.5452 0.781502 15.5499C0.777166 15.5523 0.774494 15.5537 0.7736 15.5542C0.773154 15.5544 0.773154 15.5544 0.773614 15.5542C0.773844 15.5541 0.77419 15.5539 0.774652 15.5537C0.774883 15.5535 0.775144 15.5534 0.775434 15.5533C0.775579 15.5532 0.775819 15.5531 0.775891 15.553C0.776138 15.5529 0.776393 15.5528 1 16ZM3.5 12C3.5 11.9977 3.5 11.9954 3.5 11.9932C3.5 11.9909 3.5 11.9886 3.5 11.9863C3.5 11.984 3.5 11.9817 3.5 11.9794C3.5 11.9771 3.5 11.9748 3.5 11.9725C3.5 11.9702 3.5 11.9679 3.5 11.9656C3.5 11.9633 3.5 11.961 3.5 11.9587C3.5 11.9564 3.5 11.9541 3.5 11.9518C3.5 11.9494 3.5 11.9471 3.5 11.9448C3.5 11.9425 3.5 11.9402 3.5 11.9378C3.5 11.9355 3.5 11.9332 3.5 11.9308C3.5 11.9285 3.5 11.9262 3.5 11.9238C3.5 11.9215 3.5 11.9191 3.5 11.9168C3.5 11.9144 3.5 11.9121 3.5 11.9097C3.5 11.9074 3.5 11.905 3.5 11.9027C3.5 11.9003 3.5 11.898 3.5 11.8956C3.5 11.8932 3.5 11.8909 3.5 11.8885C3.5 11.8861 3.5 11.8838 3.5 11.8814C3.5 11.879 3.5 11.8766 3.5 11.8743C3.5 11.8719 3.5 11.8695 3.5 11.8671C3.5 11.8647 3.5 11.8624 3.5 11.86C3.5 11.8576 3.5 11.8552 3.5 11.8528C3.5 11.8504 3.5 11.848 3.5 11.8456C3.5 11.8432 3.5 11.8408 3.5 11.8384C3.5 11.836 3.5 11.8336 3.5 11.8311C3.5 11.8287 3.5 11.8263 3.5 11.8239C3.5 11.8215 3.5 11.8191 3.5 11.8166C3.5 11.8142 3.5 11.8118 3.5 11.8094C3.5 11.8069 3.5 11.8045 3.5 11.8021C3.5 11.7996 3.5 11.7972 3.5 11.7948C3.5 11.7923 3.5 11.7899 3.5 11.7874C3.5 11.785 3.5 11.7825 3.5 11.7801C3.5 11.7776 3.5 11.7752 3.5 11.7727C3.5 11.7703 3.5 11.7678 3.5 11.7654C3.5 11.7629 3.5 11.7604 3.5 11.758C3.5 11.7555 3.5 11.753 3.5 11.7506C3.5 11.7481 3.5 11.7456 3.5 11.7431C3.5 11.7407 3.5 11.7382 3.5 11.7357C3.5 11.7332 3.5 11.7307 3.5 11.7282C3.5 11.7258 3.5 11.7233 3.5 11.7208C3.5 11.7183 3.5 11.7158 3.5 11.7133C3.5 11.7108 3.5 11.7083 3.5 11.7058C3.5 11.7033 3.5 11.7008 3.5 11.6983C3.5 11.6958 3.5 11.6932 3.5 11.6907C3.5 11.6882 3.5 11.6857 3.5 11.6832C3.5 11.6807 3.5 11.6781 3.5 11.6756C3.5 11.6731 3.5 11.6706 3.5 11.668C3.5 11.6655 3.5 11.663 3.5 11.6604C3.5 11.6579 3.5 11.6554 3.5 11.6528C3.5 11.6503 3.5 11.6477 3.5 11.6452C3.5 11.6426 3.5 11.6401 3.5 11.6375C3.5 11.635 3.5 11.6324 3.5 11.6299C3.5 11.6273 3.5 11.6248 3.5 11.6222C3.5 11.6196 3.5 11.6171 3.5 11.6145C3.5 11.6119 3.5 11.6094 3.5 11.6068C3.5 11.6042 3.5 11.6017 3.5 11.5991C3.5 11.5965 3.5 11.5939 3.5 11.5913C3.5 11.5888 3.5 11.5862 3.5 11.5836C3.5 11.581 3.5 11.5784 3.5 11.5758C3.5 11.5732 3.5 11.5706 3.5 11.568C3.5 11.5654 3.5 11.5628 3.5 11.5602C3.5 11.5576 3.5 11.555 3.5 11.5524C3.5 11.5498 3.5 11.5472 3.5 11.5446C3.5 11.542 3.5 11.5394 3.5 11.5367C3.5 11.5341 3.5 11.5315 3.5 11.5289C3.5 11.5263 3.5 11.5236 3.5 11.521C3.5 11.5184 3.5 11.5158 3.5 11.5131C3.5 11.5105 3.5 11.5079 3.5 11.5052C3.5 11.5026 3.5 11.4999 3.5 11.4973C3.5 11.4947 3.5 11.492 3.5 11.4894C3.5 11.4867 3.5 11.4841 3.5 11.4814C3.5 11.4788 3.5 11.4761 3.5 11.4734C3.5 11.4708 3.5 11.4681 3.5 11.4655C3.5 11.4628 3.5 11.4601 3.5 11.4575C3.5 11.4548 3.5 11.4521 3.5 11.4495C3.5 11.4468 3.5 11.4441 3.5 11.4414C3.5 11.4388 3.5 11.4361 3.5 11.4334C3.5 11.4307 3.5 11.428 3.5 11.4253C3.5 11.4227 3.5 11.42 3.5 11.4173C3.5 11.4146 3.5 11.4119 3.5 11.4092C3.5 11.4065 3.5 11.4038 3.5 11.4011C3.5 11.3984 3.5 11.3957 3.5 11.393C3.5 11.3903 3.5 11.3876 3.5 11.3849C3.5 11.3821 3.5 11.3794 3.5 11.3767C3.5 11.374 3.5 11.3713 3.5 11.3686C3.5 11.3658 3.5 11.3631 3.5 11.3604C3.5 11.3577 3.5 11.3549 3.5 11.3522C3.5 11.3495 3.5 11.3467 3.5 11.344C3.5 11.3413 3.5 11.3385 3.5 11.3358C3.5 11.3331 3.5 11.3303 3.5 11.3276C3.5 11.3248 3.5 11.3221 3.5 11.3193C3.5 11.3166 3.5 11.3138 3.5 11.3111C3.5 11.3083 3.5 11.3056 3.5 11.3028C3.5 11.3 3.5 11.2973 3.5 11.2945C3.5 11.2918 3.5 11.289 3.5 11.2862C3.5 11.2835 3.5 11.2807 3.5 11.2779C3.5 11.2751 3.5 11.2724 3.5 11.2696C3.5 11.2668 3.5 11.264 3.5 11.2612C3.5 11.2585 3.5 11.2557 3.5 11.2529C3.5 11.2501 3.5 11.2473 3.5 11.2445C3.5 11.2417 3.5 11.2389 3.5 11.2361C3.5 11.2333 3.5 11.2305 3.5 11.2277C3.5 11.2249 3.5 11.2221 3.5 11.2193C3.5 11.2165 3.5 11.2137 3.5 11.2109C3.5 11.2081 3.5 11.2053 3.5 11.2025C3.5 11.1997 3.5 11.1968 3.5 11.194C3.5 11.1912 3.5 11.1884 3.5 11.1856C3.5 11.1827 3.5 11.1799 3.5 11.1771C3.5 11.1742 3.5 11.1714 3.5 11.1686C3.5 11.1657 3.5 11.1629 3.5 11.1601C3.5 11.1572 3.5 11.1544 3.5 11.1516C3.5 11.1487 3.5 11.1459 3.5 11.143C3.5 11.1402 3.5 11.1373 3.5 11.1345C3.5 11.1316 3.5 11.1288 3.5 11.1259C3.5 11.1231 3.5 11.1202 3.5 11.1173C3.5 11.1145 3.5 11.1116 3.5 11.1088C3.5 11.1059 3.5 11.103 3.5 11.1002C3.5 11.0973 3.5 11.0944 3.5 11.0915C3.5 11.0887 3.5 11.0858 3.5 11.0829C3.5 11.08 3.5 11.0772 3.5 11.0743C3.5 11.0714 3.5 11.0685 3.5 11.0656C3.5 11.0627 3.5 11.0598 3.5 11.057C3.5 11.0541 3.5 11.0512 3.5 11.0483C3.5 11.0454 3.5 11.0425 3.5 11.0396C3.5 11.0367 3.5 11.0338 3.5 11.0309C3.5 11.028 3.5 11.0251 3.5 11.0222C3.5 11.0193 3.5 11.0163 3.5 11.0134C3.5 11.0105 3.5 11.0076 3.5 11.0047C3.5 11.0018 3.5 10.9988 3.5 10.9959C3.5 10.993 3.5 10.9901 3.5 10.9872C3.5 10.9842 3.5 10.9813 3.5 10.9784C3.5 10.9754 3.5 10.9725 3.5 10.9696C3.5 10.9666 3.5 10.9637 3.5 10.9608C3.5 10.9578 3.5 10.9549 3.5 10.9519C3.5 10.949 3.5 10.9461 3.5 10.9431C3.5 10.9402 3.5 10.9372 3.5 10.9343C3.5 10.9313 3.5 10.9284 3.5 10.9254C3.5 10.9224 3.5 10.9195 3.5 10.9165C3.5 10.9136 3.5 10.9106 3.5 10.9076C3.5 10.9047 3.5 10.9017 3.5 10.8987C3.5 10.8958 3.5 10.8928 3.5 10.8898C3.5 10.8869 3.5 10.8839 3.5 10.8809C3.5 10.8779 3.5 10.875 3.5 10.872C3.5 10.869 3.5 10.866 3.5 10.863C3.5 10.86 3.5 10.8571 3.5 10.8541C3.5 10.8511 3.5 10.8481 3.5 10.8451C3.5 10.8421 3.5 10.8391 3.5 10.8361C3.5 10.8331 3.5 10.8301 3.5 10.8271C3.5 10.8241 3.5 10.8211 3.5 10.8181C3.5 10.8151 3.5 10.8121 3.5 10.8091C3.5 10.8061 3.5 10.8031 3.5 10.8C3.5 10.797 3.5 10.794 3.5 10.791C3.5 10.788 3.5 10.785 3.5 10.7819C3.5 10.7789 3.5 10.7759 3.5 10.7729C3.5 10.7698 3.5 10.7668 3.5 10.7638C3.5 10.7608 3.5 10.7577 3.5 10.7547C3.5 10.7517 3.5 10.7486 3.5 10.7456C3.5 10.7425 3.5 10.7395 3.5 10.7365C3.5 10.7334 3.5 10.7304 3.5 10.7273C3.5 10.7243 3.5 10.7212 3.5 10.7182C3.5 10.7151 3.5 10.7121 3.5 10.709C3.5 10.706 3.5 10.7029 3.5 10.6999C3.5 10.6968 3.5 10.6938 3.5 10.6907C3.5 10.6876 3.5 10.6846 3.5 10.6815C3.5 10.6784 3.5 10.6754 3.5 10.6723C3.5 10.6692 3.5 10.6662 3.5 10.6631C3.5 10.66 3.5 10.6569 3.5 10.6539C3.5 10.6508 3.5 10.6477 3.5 10.6446C3.5 10.6416 3.5 10.6385 3.5 10.6354C3.5 10.6323 3.5 10.6292 3.5 10.6261C3.5 10.623 3.5 10.6199 3.5 10.6169C3.5 10.6138 3.5 10.6107 3.5 10.6076C3.5 10.6045 3.5 10.6014 3.5 10.5983C3.5 10.5952 3.5 10.5921 3.5 10.589C3.5 10.5859 3.5 10.5828 3.5 10.5797C3.5 10.5765 3.5 10.5734 3.5 10.5703C3.5 10.5672 3.5 10.5641 3.5 10.561C3.5 10.5579 3.5 10.5548 3.5 10.5516C3.5 10.5485 3.5 10.5454 3.5 10.5423C3.5 10.5392 3.5 10.536 3.5 10.5329C3.5 10.5298 3.5 10.5266 3.5 10.5235C3.5 10.5204 3.5 10.5173 3.5 10.5141C3.5 10.511 3.5 10.5079 3.5 10.5047C3.5 10.5016 3.5 10.4984 3.5 10.4953C3.5 10.4922 3.5 10.489 3.5 10.4859C3.5 10.4827 3.5 10.4796 3.5 10.4764C3.5 10.4733 3.5 10.4701 3.5 10.467C3.5 10.4638 3.5 10.4607 3.5 10.4575C3.5 10.4544 3.5 10.4512 3.5 10.448C3.5 10.4449 3.5 10.4417 3.5 10.4386C3.5 10.4354 3.5 10.4322 3.5 10.4291C3.5 10.4259 3.5 10.4227 3.5 10.4196C3.5 10.4164 3.5 10.4132 3.5 10.41C3.5 10.4069 3.5 10.4037 3.5 10.4005C3.5 10.3973 3.5 10.3942 3.5 10.391C3.5 10.3878 3.5 10.3846 3.5 10.3814C3.5 10.3783 3.5 10.3751 3.5 10.3719C3.5 10.3687 3.5 10.3655 3.5 10.3623C3.5 10.3591 3.5 10.3559 3.5 10.3527C3.5 10.3495 3.5 10.3463 3.5 10.3431C3.5 10.3399 3.5 10.3367 3.5 10.3335C3.5 10.3303 3.5 10.3271 3.5 10.3239C3.5 10.3207 3.5 10.3175 3.5 10.3143C3.5 10.3111 3.5 10.3079 3.5 10.3047C3.5 10.3015 3.5 10.2982 3.5 10.295C3.5 10.2918 3.5 10.2886 3.5 10.2854C3.5 10.2822 3.5 10.2789 3.5 10.2757C3.5 10.2725 3.5 10.2693 3.5 10.266C3.5 10.2628 3.5 10.2596 3.5 10.2564C3.5 10.2531 3.5 10.2499 3.5 10.2467C3.5 10.2434 3.5 10.2402 3.5 10.237C3.5 10.2337 3.5 10.2305 3.5 10.2272C3.5 10.224 3.5 10.2208 3.5 10.2175C3.5 10.2143 3.5 10.211 3.5 10.2078C3.5 10.2045 3.5 10.2013 3.5 10.198C3.5 10.1948 3.5 10.1915 3.5 10.1883C3.5 10.185 3.5 10.1818 3.5 10.1785C3.5 10.1753 3.5 10.172 3.5 10.1688C3.5 10.1655 3.5 10.1622 3.5 10.159C3.5 10.1557 3.5 10.1524 3.5 10.1492C3.5 10.1459 3.5 10.1426 3.5 10.1394C3.5 10.1361 3.5 10.1328 3.5 10.1296C3.5 10.1263 3.5 10.123 3.5 10.1197C3.5 10.1165 3.5 10.1132 3.5 10.1099C3.5 10.1066 3.5 10.1033 3.5 10.1001C3.5 10.0968 3.5 10.0935 3.5 10.0902C3.5 10.0869 3.5 10.0836 3.5 10.0803C3.5 10.0771 3.5 10.0738 3.5 10.0705C3.5 10.0672 3.5 10.0639 3.5 10.0606C3.5 10.0573 3.5 10.054 3.5 10.0507C3.5 10.0474 3.5 10.0441 3.5 10.0408C3.5 10.0375 3.5 10.0342 3.5 10.0309C3.5 10.0276 3.5 10.0243 3.5 10.021C3.5 10.0177 3.5 10.0144 3.5 10.0111C3.5 10.0077 3.5 10.0044 3.5 10.0011C3.5 9.9978 3.5 9.99449 3.5 9.99117C3.5 9.98785 3.5 9.98453 3.5 9.98121C3.5 9.97789 3.5 9.97457 3.5 9.97125C3.5 9.96793 3.5 9.9646 3.5 9.96127C3.5 9.95795 3.5 9.95462 3.5 9.95129C3.5 9.94796 3.5 9.94463 3.5 9.9413C3.5 9.93797 3.5 9.93463 3.5 9.9313C3.5 9.92796 3.5 9.92462 3.5 9.92129C3.5 9.91795 3.5 9.91461 3.5 9.91127C3.5 9.90792 3.5 9.90458 3.5 9.90124C3.5 9.89789 3.5 9.89455 3.5 9.8912C3.5 9.88785 3.5 9.8845 3.5 9.88115C3.5 9.8778 3.5 9.87445 3.5 9.8711C3.5 9.86774 3.5 9.86439 3.5 9.86103C3.5 9.85768 3.5 9.85432 3.5 9.85096C3.5 9.8476 3.5 9.84424 3.5 9.84088C3.5 9.83752 3.5 9.83415 3.5 9.83079C3.5 9.82742 3.5 9.82406 3.5 9.82069C3.5 9.81732 3.5 9.81395 3.5 9.81058C3.5 9.80721 3.5 9.80384 3.5 9.80046C3.5 9.79709 3.5 9.79371 3.5 9.79034C3.5 9.78696 3.5 9.78358 3.5 9.7802C3.5 9.77682 3.5 9.77344 3.5 9.77006C3.5 9.76668 3.5 9.76329 3.5 9.75991C3.5 9.75652 3.5 9.75314 3.5 9.74975C3.5 9.74636 3.5 9.74297 3.5 9.73958C3.5 9.73619 3.5 9.7328 3.5 9.72941C3.5 9.72601 3.5 9.72262 3.5 9.71922C3.5 9.71582 3.5 9.71243 3.5 9.70903C3.5 9.70563 3.5 9.70223 3.5 9.69883C3.5 9.69542 3.5 9.69202 3.5 9.68862C3.5 9.68521 3.5 9.68181 3.5 9.6784C3.5 9.67499 3.5 9.67158 3.5 9.66817C3.5 9.66476 3.5 9.66135 3.5 9.65794C3.5 9.65452 3.5 9.65111 3.5 9.6477C3.5 9.64428 3.5 9.64086 3.5 9.63744C3.5 9.63403 3.5 9.63061 3.5 9.62719C3.5 9.62376 3.5 9.62034 3.5 9.61692C3.5 9.6135 3.5 9.61007 3.5 9.60664C3.5 9.60322 3.5 9.59979 3.5 9.59636C3.5 9.59293 3.5 9.5895 3.5 9.58607C3.5 9.58264 3.5 9.57921 3.5 9.57577C3.5 9.57234 3.5 9.5689 3.5 9.56547C3.5 9.56203 3.5 9.55859 3.5 9.55515C3.5 9.55171 3.5 9.54827 3.5 9.54483C3.5 9.54139 3.5 9.53794 3.5 9.5345C3.5 9.53106 3.5 9.52761 3.5 9.52416C3.5 9.52071 3.5 9.51727 3.5 9.51382C3.5 9.51037 3.5 9.50692 3.5 9.50346C3.5 9.50001 3.5 9.49656 3.5 9.4931C3.5 9.48965 3.5 9.48619 3.5 9.48274C3.5 9.47928 3.5 9.47582 3.5 9.47236C3.5 9.4689 3.5 9.46544 3.5 9.46198C3.5 9.45851 3.5 9.45505 3.5 9.45159C3.5 9.44812 3.5 9.44465 3.5 9.44119C3.5 9.43772 3.5 9.43425 3.5 9.43078C3.5 9.42731 3.5 9.42384 3.5 9.42037C3.5 9.4169 3.5 9.41342 3.5 9.40995C3.5 9.40647 3.5 9.403 3.5 9.39952C3.5 9.39604 3.5 9.39256 3.5 9.38909C3.5 9.38561 3.5 9.38212 3.5 9.37864C3.5 9.37516 3.5 9.37168 3.5 9.36819C3.5 9.36471 3.5 9.36122 3.5 9.35774C3.5 9.35425 3.5 9.35076 3.5 9.34727C3.5 9.34378 3.5 9.34029 3.5 9.3368C3.5 9.33331 3.5 9.32982 3.5 9.32632C3.5 9.32283 3.5 9.31933 3.5 9.31584C3.5 9.31234 3.5 9.30885 3.5 9.30535C3.5 9.30185 3.5 9.29835 3.5 9.29485C3.5 9.29135 3.5 9.28785 3.5 9.28434C3.5 9.28084 3.5 9.27733 3.5 9.27383C3.5 9.27032 3.5 9.26682 3.5 9.26331C3.5 9.2598 3.5 9.25629 3.5 9.25278C3.5 9.24927 3.5 9.24576 3.5 9.24225C3.5 9.23874 3.5 9.23522 3.5 9.23171C3.5 9.22819 3.5 9.22468 3.5 9.22116C3.5 9.21764 3.5 9.21413 3.5 9.21061C3.5 9.20709 3.5 9.20357 3.5 9.20005C3.5 9.19653 3.5 9.193 3.5 9.18948C3.5 9.18596 3.5 9.18243 3.5 9.17891C3.5 9.17538 3.5 9.17185 3.5 9.16833C3.5 9.1648 3.5 9.16127 3.5 9.15774C3.5 9.15421 3.5 9.15068 3.5 9.14715C3.5 9.14361 3.5 9.14008 3.5 9.13655C3.5 9.13301 3.5 9.12948 3.5 9.12594C3.5 9.1224 3.5 9.11887 3.5 9.11533C3.5 9.11179 3.5 9.10825 3.5 9.10471C3.5 9.10117 3.5 9.09763 3.5 9.09408C3.5 9.09054 3.5 9.087 3.5 9.08345C3.5 9.07991 3.5 9.07636 3.5 9.07281C3.5 9.06927 3.5 9.06572 3.5 9.06217C3.5 9.05862 3.5 9.05507 3.5 9.05152C3.5 9.04797 3.5 9.04442 3.5 9.04086C3.5 9.03731 3.5 9.03376 3.5 9.0302C3.5 9.02665 3.5 9.02309 3.5 9.01953C3.5 9.01598 3.5 9.01242 3.5 9.00886C3.5 9.0053 3.5 9.00174 3.5 8.99818C3.5 8.99462 3.5 8.99105 3.5 8.98749C3.5 8.98393 3.5 8.98036 3.5 8.9768C3.5 8.97323 3.5 8.96967 3.5 8.9661C3.5 8.96253 3.5 8.95896 3.5 8.95539C3.5 8.95183 3.5 8.94826 3.5 8.94468C3.5 8.94111 3.5 8.93754 3.5 8.93397C3.5 8.9304 3.5 8.92682 3.5 8.92325C3.5 8.91967 3.5 8.9161 3.5 8.91252C3.5 8.90894 3.5 8.90536 3.5 8.90178C3.5 8.89821 3.5 8.89463 3.5 8.89105C3.5 8.88747 3.5 8.88388 3.5 8.8803C3.5 8.87672 3.5 8.87314 3.5 8.86955C3.5 8.86597 3.5 8.86238 3.5 8.85879C3.5 8.85521 3.5 8.85162 3.5 8.84803C3.5 8.84445 3.5 8.84086 3.5 8.83727C3.5 8.83368 3.5 8.83009 3.5 8.82649C3.5 8.8229 3.5 8.81931 3.5 8.81572C3.5 8.81212 3.5 8.80853 3.5 8.80493C3.5 8.80134 3.5 8.79774 3.5 8.79414C3.5 8.79055 3.5 8.78695 3.5 8.78335C3.5 8.77975 3.5 8.77615 3.5 8.77255C3.5 8.76895 3.5 8.76535 3.5 8.76174C3.5 8.75814 3.5 8.75454 3.5 8.75094C3.5 8.74733 3.5 8.74373 3.5 8.74012C3.5 8.73651 3.5 8.73291 3.5 8.7293C3.5 8.72569 3.5 8.72208 3.5 8.71847C3.5 8.71486 3.5 8.71125 3.5 8.70764C3.5 8.70403 3.5 8.70042 3.5 8.69681C3.5 8.69319 3.5 8.68958 3.5 8.68597C3.5 8.68235 3.5 8.67874 3.5 8.67512C3.5 8.6715 3.5 8.66789 3.5 8.66427C3.5 8.66065 3.5 8.65703 3.5 8.65341C3.5 8.6498 3.5 8.64618 3.5 8.64255C3.5 8.63893 3.5 8.63531 3.5 8.63169C3.5 8.62807 3.5 8.62444 3.5 8.62082C3.5 8.61719 3.5 8.61357 3.5 8.60994C3.5 8.60632 3.5 8.60269 3.5 8.59906C3.5 8.59544 3.5 8.59181 3.5 8.58818C3.5 8.58455 3.5 8.58092 3.5 8.57729C3.5 8.57366 3.5 8.57003 3.5 8.5664C3.5 8.56276 3.5 8.55913 3.5 8.5555C3.5 8.55186 3.5 8.54823 3.5 8.54459C3.5 8.54096 3.5 8.53732 3.5 8.53369C3.5 8.53005 3.5 8.52641 3.5 8.52277C3.5 8.51914 3.5 8.5155 3.5 8.51186C3.5 8.50822 3.5 8.50458 3.5 8.50094C3.5 8.4973 3.5 8.49365 3.5 8.49001C3.5 8.48637 3.5 8.48273 3.5 8.47908C3.5 8.47544 3.5 8.47179 3.5 8.46815C3.5 8.4645 3.5 8.46086 3.5 8.45721C3.5 8.45356 3.5 8.44991 3.5 8.44627C3.5 8.44262 3.5 8.43897 3.5 8.43532C3.5 8.43167 3.5 8.42802 3.5 8.42437C3.5 8.42072 3.5 8.41706 3.5 8.41341C3.5 8.40976 3.5 8.40611 3.5 8.40245C3.5 8.3988 3.5 8.39514 3.5 8.39149C3.5 8.38783 3.5 8.38418 3.5 8.38052C3.5 8.37686 3.5 8.37321 3.5 8.36955C3.5 8.36589 3.5 8.36223 3.5 8.35857C3.5 8.35491 3.5 8.35125 3.5 8.34759C3.5 8.34393 3.5 8.34027 3.5 8.33661C3.5 8.33295 3.5 8.32928 3.5 8.32562C3.5 8.32196 3.5 8.31829 3.5 8.31463C3.5 8.31096 3.5 8.3073 3.5 8.30363C3.5 8.29997 3.5 8.2963 3.5 8.29263C3.5 8.28897 3.5 8.2853 3.5 8.28163C3.5 8.27796 3.5 8.27429 3.5 8.27062C3.5 8.26695 3.5 8.26328 3.5 8.25961C3.5 8.25594 3.5 8.25227 3.5 8.2486C3.5 8.24493 3.5 8.24125 3.5 8.23758C3.5 8.23391 3.5 8.23023 3.5 8.22656C3.5 8.22288 3.5 8.21921 3.5 8.21553C3.5 8.21186 3.5 8.20818 3.5 8.2045C3.5 8.20083 3.5 8.19715 3.5 8.19347C3.5 8.1898 3.5 8.18612 3.5 8.18244C3.5 8.17876 3.5 8.17508 3.5 8.1714C3.5 8.16772 3.5 8.16404 3.5 8.16036C3.5 8.15667 3.5 8.15299 3.5 8.14931C3.5 8.14563 3.5 8.14194 3.5 8.13826C3.5 8.13458 3.5 8.13089 3.5 8.12721C3.5 8.12352 3.5 8.11984 3.5 8.11615C3.5 8.11247 3.5 8.10878 3.5 8.10509C3.5 8.10141 3.5 8.09772 3.5 8.09403C3.5 8.09034 3.5 8.08666 3.5 8.08297C3.5 8.07928 3.5 8.07559 3.5 8.0719C3.5 8.06821 3.5 8.06452 3.5 8.06083C3.5 8.05714 3.5 8.05344 3.5 8.04975C3.5 8.04606 3.5 8.04237 3.5 8.03867C3.5 8.03498 3.5 8.03129 3.5 8.02759C3.5 8.0239 3.5 8.02021 3.5 8.01651C3.5 8.01281 3.5 8.00912 3.5 8.00542C3.5 8.00173 3.5 7.99803 3.5 7.99433C3.5 7.99064 3.5 7.98694 3.5 7.98324C3.5 7.97954 3.5 7.97585 3.5 7.97215C3.5 7.96845 3.5 7.96475 3.5 7.96105C3.5 7.95735 3.5 7.95365 3.5 7.94995C3.5 7.94625 3.5 7.94255 3.5 7.93885C3.5 7.93514 3.5 7.93144 3.5 7.92774C3.5 7.92404 3.5 7.92033 3.5 7.91663C3.5 7.91293 3.5 7.90922 3.5 7.90552C3.5 7.90181 3.5 7.89811 3.5 7.89441C3.5 7.8907 3.5 7.88699 3.5 7.88329C3.5 7.87958 3.5 7.87588 3.5 7.87217C3.5 7.86846 3.5 7.86476 3.5 7.86105C3.5 7.85734 3.5 7.85363 3.5 7.84992C3.5 7.84622 3.5 7.84251 3.5 7.8388C3.5 7.83509 3.5 7.83138 3.5 7.82767C3.5 7.82396 3.5 7.82025 3.5 7.81654C3.5 7.81283 3.5 7.80912 3.5 7.80541C3.5 7.80169 3.5 7.79798 3.5 7.79427C3.5 7.79056 3.5 7.78685 3.5 7.78313C3.5 7.77942 3.5 7.77571 3.5 7.77199C3.5 7.76828 3.5 7.76456 3.5 7.76085C3.5 7.75714 3.5 7.75342 3.5 7.74971C3.5 7.74599 3.5 7.74228 3.5 7.73856C3.5 7.73484 3.5 7.73113 3.5 7.72741C3.5 7.72369 3.5 7.71998 3.5 7.71626C3.5 7.71254 3.5 7.70883 3.5 7.70511C3.5 7.70139 3.5 7.69767 3.5 7.69395C3.5 7.69023 3.5 7.68652 3.5 7.6828C3.5 7.67908 3.5 7.67536 3.5 7.67164C3.5 7.66792 3.5 7.6642 3.5 7.66048C3.5 7.65676 3.5 7.65304 3.5 7.64932C3.5 7.6456 3.5 7.64187 3.5 7.63815C3.5 7.63443 3.5 7.63071 3.5 7.62699C3.5 7.62326 3.5 7.61954 3.5 7.61582C3.5 7.6121 3.5 7.60837 3.5 7.60465C3.5 7.60093 3.5 7.5972 3.5 7.59348C3.5 7.58976 3.5 7.58603 3.5 7.58231C3.5 7.57858 3.5 7.57486 3.5 7.57113C3.5 7.56741 3.5 7.56368 3.5 7.55996C3.5 7.55623 3.5 7.55251 3.5 7.54878C3.5 7.54505 3.5 7.54133 3.5 7.5376C3.5 7.53388 3.5 7.53015 3.5 7.52642C3.5 7.5227 3.5 7.51897 3.5 7.51524C3.5 7.51151 3.5 7.50779 3.5 7.50406C3.5 7.50033 3.5 7.4966 3.5 7.49287C3.5 7.48915 3.5 7.48542 3.5 7.48169C3.5 7.47796 3.5 7.47423 3.5 7.4705C3.5 7.46677 3.5 7.46304 3.5 7.45931C3.5 7.45558 3.5 7.45185 3.5 7.44812C3.5 7.4444 3.5 7.44066 3.5 7.43693C3.5 7.4332 3.5 7.42947 3.5 7.42574C3.5 7.42201 3.5 7.41828 3.5 7.41455C3.5 7.41082 3.5 7.40709 3.5 7.40336C3.5 7.39963 3.5 7.39589 3.5 7.39216C3.5 7.38843 3.5 7.3847 3.5 7.38097C3.5 7.37723 3.5 7.3735 3.5 7.36977C3.5 7.36604 3.5 7.3623 3.5 7.35857C3.5 7.35484 3.5 7.35111 3.5 7.34737C3.5 7.34364 3.5 7.33991 3.5 7.33617C3.5 7.33244 3.5 7.32871 3.5 7.32497C3.5 7.32124 3.5 7.31751 3.5 7.31377C3.5 7.31004 3.5 7.3063 3.5 7.30257C3.5 7.29884 3.5 7.2951 3.5 7.29137C3.5 7.28763 3.5 7.2839 3.5 7.28016C3.5 7.27643 3.5 7.2727 3.5 7.26896C3.5 7.26523 3.5 7.26149 3.5 7.25776C3.5 7.25402 3.5 7.25029 3.5 7.24655C3.5 7.24282 3.5 7.23908 3.5 7.23534C3.5 7.23161 3.5 7.22787 3.5 7.22414C3.5 7.2204 3.5 7.21667 3.5 7.21293C3.5 7.2092 3.5 7.20546 3.5 7.20172C3.5 7.19799 3.5 7.19425 3.5 7.19052C3.5 7.18678 3.5 7.18304 3.5 7.17931C3.5 7.17557 3.5 7.17184 3.5 7.1681C3.5 7.16436 3.5 7.16063 3.5 7.15689C3.5 7.15315 3.5 7.14942 3.5 7.14568C3.5 7.14194 3.5 7.13821 3.5 7.13447C3.5 7.13073 3.5 7.127 3.5 7.12326C3.5 7.11953 3.5 7.11579 3.5 7.11205C3.5 7.10832 3.5 7.10458 3.5 7.10084C3.5 7.09711 3.5 7.09337 3.5 7.08963C3.5 7.0859 3.5 7.08216 3.5 7.07842C3.5 7.07468 3.5 7.07095 3.5 7.06721C3.5 7.06347 3.5 7.05974 3.5 7.056C3.5 7.05226 3.5 7.04853 3.5 7.04479C3.5 7.04105 3.5 7.03732 3.5 7.03358C3.5 7.02984 3.5 7.02611 3.5 7.02237C3.5 7.01863 3.5 7.0149 3.5 7.01116C3.5 7.00742 3.5 7.00369 3.5 6.99995H2.5C2.5 7.00369 2.5 7.00742 2.5 7.01116C2.5 7.0149 2.5 7.01863 2.5 7.02237C2.5 7.02611 2.5 7.02984 2.5 7.03358C2.5 7.03732 2.5 7.04105 2.5 7.04479C2.5 7.04853 2.5 7.05226 2.5 7.056C2.5 7.05974 2.5 7.06347 2.5 7.06721C2.5 7.07095 2.5 7.07468 2.5 7.07842C2.5 7.08216 2.5 7.0859 2.5 7.08963C2.5 7.09337 2.5 7.09711 2.5 7.10084C2.5 7.10458 2.5 7.10832 2.5 7.11205C2.5 7.11579 2.5 7.11953 2.5 7.12326C2.5 7.127 2.5 7.13073 2.5 7.13447C2.5 7.13821 2.5 7.14194 2.5 7.14568C2.5 7.14942 2.5 7.15315 2.5 7.15689C2.5 7.16063 2.5 7.16436 2.5 7.1681C2.5 7.17184 2.5 7.17557 2.5 7.17931C2.5 7.18304 2.5 7.18678 2.5 7.19052C2.5 7.19425 2.5 7.19799 2.5 7.20172C2.5 7.20546 2.5 7.2092 2.5 7.21293C2.5 7.21667 2.5 7.2204 2.5 7.22414C2.5 7.22787 2.5 7.23161 2.5 7.23534C2.5 7.23908 2.5 7.24282 2.5 7.24655C2.5 7.25029 2.5 7.25402 2.5 7.25776C2.5 7.26149 2.5 7.26523 2.5 7.26896C2.5 7.2727 2.5 7.27643 2.5 7.28016C2.5 7.2839 2.5 7.28763 2.5 7.29137C2.5 7.2951 2.5 7.29884 2.5 7.30257C2.5 7.3063 2.5 7.31004 2.5 7.31377C2.5 7.31751 2.5 7.32124 2.5 7.32497C2.5 7.32871 2.5 7.33244 2.5 7.33617C2.5 7.33991 2.5 7.34364 2.5 7.34737C2.5 7.35111 2.5 7.35484 2.5 7.35857C2.5 7.3623 2.5 7.36604 2.5 7.36977C2.5 7.3735 2.5 7.37723 2.5 7.38097C2.5 7.3847 2.5 7.38843 2.5 7.39216C2.5 7.39589 2.5 7.39963 2.5 7.40336C2.5 7.40709 2.5 7.41082 2.5 7.41455C2.5 7.41828 2.5 7.42201 2.5 7.42574C2.5 7.42947 2.5 7.4332 2.5 7.43693C2.5 7.44066 2.5 7.4444 2.5 7.44812C2.5 7.45185 2.5 7.45558 2.5 7.45931C2.5 7.46304 2.5 7.46677 2.5 7.4705C2.5 7.47423 2.5 7.47796 2.5 7.48169C2.5 7.48542 2.5 7.48915 2.5 7.49287C2.5 7.4966 2.5 7.50033 2.5 7.50406C2.5 7.50779 2.5 7.51151 2.5 7.51524C2.5 7.51897 2.5 7.5227 2.5 7.52642C2.5 7.53015 2.5 7.53388 2.5 7.5376C2.5 7.54133 2.5 7.54505 2.5 7.54878C2.5 7.55251 2.5 7.55623 2.5 7.55996C2.5 7.56368 2.5 7.56741 2.5 7.57113C2.5 7.57486 2.5 7.57858 2.5 7.58231C2.5 7.58603 2.5 7.58976 2.5 7.59348C2.5 7.5972 2.5 7.60093 2.5 7.60465C2.5 7.60837 2.5 7.6121 2.5 7.61582C2.5 7.61954 2.5 7.62326 2.5 7.62699C2.5 7.63071 2.5 7.63443 2.5 7.63815C2.5 7.64187 2.5 7.6456 2.5 7.64932C2.5 7.65304 2.5 7.65676 2.5 7.66048C2.5 7.6642 2.5 7.66792 2.5 7.67164C2.5 7.67536 2.5 7.67908 2.5 7.6828C2.5 7.68652 2.5 7.69023 2.5 7.69395C2.5 7.69767 2.5 7.70139 2.5 7.70511C2.5 7.70883 2.5 7.71254 2.5 7.71626C2.5 7.71998 2.5 7.72369 2.5 7.72741C2.5 7.73113 2.5 7.73484 2.5 7.73856C2.5 7.74228 2.5 7.74599 2.5 7.74971C2.5 7.75342 2.5 7.75714 2.5 7.76085C2.5 7.76456 2.5 7.76828 2.5 7.77199C2.5 7.77571 2.5 7.77942 2.5 7.78313C2.5 7.78685 2.5 7.79056 2.5 7.79427C2.5 7.79798 2.5 7.80169 2.5 7.80541C2.5 7.80912 2.5 7.81283 2.5 7.81654C2.5 7.82025 2.5 7.82396 2.5 7.82767C2.5 7.83138 2.5 7.83509 2.5 7.8388C2.5 7.84251 2.5 7.84622 2.5 7.84992C2.5 7.85363 2.5 7.85734 2.5 7.86105C2.5 7.86476 2.5 7.86846 2.5 7.87217C2.5 7.87588 2.5 7.87958 2.5 7.88329C2.5 7.88699 2.5 7.8907 2.5 7.89441C2.5 7.89811 2.5 7.90181 2.5 7.90552C2.5 7.90922 2.5 7.91293 2.5 7.91663C2.5 7.92033 2.5 7.92404 2.5 7.92774C2.5 7.93144 2.5 7.93514 2.5 7.93885C2.5 7.94255 2.5 7.94625 2.5 7.94995C2.5 7.95365 2.5 7.95735 2.5 7.96105C2.5 7.96475 2.5 7.96845 2.5 7.97215C2.5 7.97585 2.5 7.97954 2.5 7.98324C2.5 7.98694 2.5 7.99064 2.5 7.99433C2.5 7.99803 2.5 8.00173 2.5 8.00542C2.5 8.00912 2.5 8.01281 2.5 8.01651C2.5 8.02021 2.5 8.0239 2.5 8.02759C2.5 8.03129 2.5 8.03498 2.5 8.03867C2.5 8.04237 2.5 8.04606 2.5 8.04975C2.5 8.05344 2.5 8.05714 2.5 8.06083C2.5 8.06452 2.5 8.06821 2.5 8.0719C2.5 8.07559 2.5 8.07928 2.5 8.08297C2.5 8.08666 2.5 8.09034 2.5 8.09403C2.5 8.09772 2.5 8.10141 2.5 8.10509C2.5 8.10878 2.5 8.11247 2.5 8.11615C2.5 8.11984 2.5 8.12352 2.5 8.12721C2.5 8.13089 2.5 8.13458 2.5 8.13826C2.5 8.14194 2.5 8.14563 2.5 8.14931C2.5 8.15299 2.5 8.15667 2.5 8.16036C2.5 8.16404 2.5 8.16772 2.5 8.1714C2.5 8.17508 2.5 8.17876 2.5 8.18244C2.5 8.18612 2.5 8.1898 2.5 8.19347C2.5 8.19715 2.5 8.20083 2.5 8.2045C2.5 8.20818 2.5 8.21186 2.5 8.21553C2.5 8.21921 2.5 8.22288 2.5 8.22656C2.5 8.23023 2.5 8.23391 2.5 8.23758C2.5 8.24125 2.5 8.24493 2.5 8.2486C2.5 8.25227 2.5 8.25594 2.5 8.25961C2.5 8.26328 2.5 8.26695 2.5 8.27062C2.5 8.27429 2.5 8.27796 2.5 8.28163C2.5 8.2853 2.5 8.28897 2.5 8.29263C2.5 8.2963 2.5 8.29997 2.5 8.30363C2.5 8.3073 2.5 8.31096 2.5 8.31463C2.5 8.31829 2.5 8.32196 2.5 8.32562C2.5 8.32928 2.5 8.33295 2.5 8.33661C2.5 8.34027 2.5 8.34393 2.5 8.34759C2.5 8.35125 2.5 8.35491 2.5 8.35857C2.5 8.36223 2.5 8.36589 2.5 8.36955C2.5 8.37321 2.5 8.37686 2.5 8.38052C2.5 8.38418 2.5 8.38783 2.5 8.39149C2.5 8.39514 2.5 8.3988 2.5 8.40245C2.5 8.40611 2.5 8.40976 2.5 8.41341C2.5 8.41706 2.5 8.42072 2.5 8.42437C2.5 8.42802 2.5 8.43167 2.5 8.43532C2.5 8.43897 2.5 8.44262 2.5 8.44627C2.5 8.44991 2.5 8.45356 2.5 8.45721C2.5 8.46086 2.5 8.4645 2.5 8.46815C2.5 8.47179 2.5 8.47544 2.5 8.47908C2.5 8.48273 2.5 8.48637 2.5 8.49001C2.5 8.49365 2.5 8.4973 2.5 8.50094C2.5 8.50458 2.5 8.50822 2.5 8.51186C2.5 8.5155 2.5 8.51914 2.5 8.52277C2.5 8.52641 2.5 8.53005 2.5 8.53369C2.5 8.53732 2.5 8.54096 2.5 8.54459C2.5 8.54823 2.5 8.55186 2.5 8.5555C2.5 8.55913 2.5 8.56276 2.5 8.5664C2.5 8.57003 2.5 8.57366 2.5 8.57729C2.5 8.58092 2.5 8.58455 2.5 8.58818C2.5 8.59181 2.5 8.59544 2.5 8.59906C2.5 8.60269 2.5 8.60632 2.5 8.60994C2.5 8.61357 2.5 8.61719 2.5 8.62082C2.5 8.62444 2.5 8.62807 2.5 8.63169C2.5 8.63531 2.5 8.63893 2.5 8.64255C2.5 8.64618 2.5 8.6498 2.5 8.65341C2.5 8.65703 2.5 8.66065 2.5 8.66427C2.5 8.66789 2.5 8.6715 2.5 8.67512C2.5 8.67874 2.5 8.68235 2.5 8.68597C2.5 8.68958 2.5 8.69319 2.5 8.69681C2.5 8.70042 2.5 8.70403 2.5 8.70764C2.5 8.71125 2.5 8.71486 2.5 8.71847C2.5 8.72208 2.5 8.72569 2.5 8.7293C2.5 8.73291 2.5 8.73651 2.5 8.74012C2.5 8.74373 2.5 8.74733 2.5 8.75094C2.5 8.75454 2.5 8.75814 2.5 8.76174C2.5 8.76535 2.5 8.76895 2.5 8.77255C2.5 8.77615 2.5 8.77975 2.5 8.78335C2.5 8.78695 2.5 8.79055 2.5 8.79414C2.5 8.79774 2.5 8.80134 2.5 8.80493C2.5 8.80853 2.5 8.81212 2.5 8.81572C2.5 8.81931 2.5 8.8229 2.5 8.82649C2.5 8.83009 2.5 8.83368 2.5 8.83727C2.5 8.84086 2.5 8.84445 2.5 8.84803C2.5 8.85162 2.5 8.85521 2.5 8.85879C2.5 8.86238 2.5 8.86597 2.5 8.86955C2.5 8.87314 2.5 8.87672 2.5 8.8803C2.5 8.88388 2.5 8.88747 2.5 8.89105C2.5 8.89463 2.5 8.89821 2.5 8.90178C2.5 8.90536 2.5 8.90894 2.5 8.91252C2.5 8.9161 2.5 8.91967 2.5 8.92325C2.5 8.92682 2.5 8.9304 2.5 8.93397C2.5 8.93754 2.5 8.94111 2.5 8.94468C2.5 8.94826 2.5 8.95183 2.5 8.95539C2.5 8.95896 2.5 8.96253 2.5 8.9661C2.5 8.96967 2.5 8.97323 2.5 8.9768C2.5 8.98036 2.5 8.98393 2.5 8.98749C2.5 8.99105 2.5 8.99462 2.5 8.99818C2.5 9.00174 2.5 9.0053 2.5 9.00886C2.5 9.01242 2.5 9.01598 2.5 9.01953C2.5 9.02309 2.5 9.02665 2.5 9.0302C2.5 9.03376 2.5 9.03731 2.5 9.04086C2.5 9.04442 2.5 9.04797 2.5 9.05152C2.5 9.05507 2.5 9.05862 2.5 9.06217C2.5 9.06572 2.5 9.06927 2.5 9.07281C2.5 9.07636 2.5 9.07991 2.5 9.08345C2.5 9.087 2.5 9.09054 2.5 9.09408C2.5 9.09763 2.5 9.10117 2.5 9.10471C2.5 9.10825 2.5 9.11179 2.5 9.11533C2.5 9.11887 2.5 9.1224 2.5 9.12594C2.5 9.12948 2.5 9.13301 2.5 9.13655C2.5 9.14008 2.5 9.14361 2.5 9.14715C2.5 9.15068 2.5 9.15421 2.5 9.15774C2.5 9.16127 2.5 9.1648 2.5 9.16833C2.5 9.17185 2.5 9.17538 2.5 9.17891C2.5 9.18243 2.5 9.18596 2.5 9.18948C2.5 9.193 2.5 9.19653 2.5 9.20005C2.5 9.20357 2.5 9.20709 2.5 9.21061C2.5 9.21413 2.5 9.21764 2.5 9.22116C2.5 9.22468 2.5 9.22819 2.5 9.23171C2.5 9.23522 2.5 9.23874 2.5 9.24225C2.5 9.24576 2.5 9.24927 2.5 9.25278C2.5 9.25629 2.5 9.2598 2.5 9.26331C2.5 9.26682 2.5 9.27032 2.5 9.27383C2.5 9.27733 2.5 9.28084 2.5 9.28434C2.5 9.28785 2.5 9.29135 2.5 9.29485C2.5 9.29835 2.5 9.30185 2.5 9.30535C2.5 9.30885 2.5 9.31234 2.5 9.31584C2.5 9.31933 2.5 9.32283 2.5 9.32632C2.5 9.32982 2.5 9.33331 2.5 9.3368C2.5 9.34029 2.5 9.34378 2.5 9.34727C2.5 9.35076 2.5 9.35425 2.5 9.35774C2.5 9.36122 2.5 9.36471 2.5 9.36819C2.5 9.37168 2.5 9.37516 2.5 9.37864C2.5 9.38212 2.5 9.38561 2.5 9.38909C2.5 9.39256 2.5 9.39604 2.5 9.39952C2.5 9.403 2.5 9.40647 2.5 9.40995C2.5 9.41342 2.5 9.4169 2.5 9.42037C2.5 9.42384 2.5 9.42731 2.5 9.43078C2.5 9.43425 2.5 9.43772 2.5 9.44119C2.5 9.44465 2.5 9.44812 2.5 9.45159C2.5 9.45505 2.5 9.45851 2.5 9.46198C2.5 9.46544 2.5 9.4689 2.5 9.47236C2.5 9.47582 2.5 9.47928 2.5 9.48274C2.5 9.48619 2.5 9.48965 2.5 9.4931C2.5 9.49656 2.5 9.50001 2.5 9.50346C2.5 9.50692 2.5 9.51037 2.5 9.51382C2.5 9.51727 2.5 9.52071 2.5 9.52416C2.5 9.52761 2.5 9.53106 2.5 9.5345C2.5 9.53794 2.5 9.54139 2.5 9.54483C2.5 9.54827 2.5 9.55171 2.5 9.55515C2.5 9.55859 2.5 9.56203 2.5 9.56547C2.5 9.5689 2.5 9.57234 2.5 9.57577C2.5 9.57921 2.5 9.58264 2.5 9.58607C2.5 9.5895 2.5 9.59293 2.5 9.59636C2.5 9.59979 2.5 9.60322 2.5 9.60664C2.5 9.61007 2.5 9.6135 2.5 9.61692C2.5 9.62034 2.5 9.62376 2.5 9.62719C2.5 9.63061 2.5 9.63403 2.5 9.63744C2.5 9.64086 2.5 9.64428 2.5 9.6477C2.5 9.65111 2.5 9.65452 2.5 9.65794C2.5 9.66135 2.5 9.66476 2.5 9.66817C2.5 9.67158 2.5 9.67499 2.5 9.6784C2.5 9.68181 2.5 9.68521 2.5 9.68862C2.5 9.69202 2.5 9.69542 2.5 9.69883C2.5 9.70223 2.5 9.70563 2.5 9.70903C2.5 9.71243 2.5 9.71582 2.5 9.71922C2.5 9.72262 2.5 9.72601 2.5 9.72941C2.5 9.7328 2.5 9.73619 2.5 9.73958C2.5 9.74297 2.5 9.74636 2.5 9.74975C2.5 9.75314 2.5 9.75652 2.5 9.75991C2.5 9.76329 2.5 9.76668 2.5 9.77006C2.5 9.77344 2.5 9.77682 2.5 9.7802C2.5 9.78358 2.5 9.78696 2.5 9.79034C2.5 9.79371 2.5 9.79709 2.5 9.80046C2.5 9.80384 2.5 9.80721 2.5 9.81058C2.5 9.81395 2.5 9.81732 2.5 9.82069C2.5 9.82406 2.5 9.82742 2.5 9.83079C2.5 9.83415 2.5 9.83752 2.5 9.84088C2.5 9.84424 2.5 9.8476 2.5 9.85096C2.5 9.85432 2.5 9.85768 2.5 9.86103C2.5 9.86439 2.5 9.86774 2.5 9.8711C2.5 9.87445 2.5 9.8778 2.5 9.88115C2.5 9.8845 2.5 9.88785 2.5 9.8912C2.5 9.89455 2.5 9.89789 2.5 9.90124C2.5 9.90458 2.5 9.90792 2.5 9.91127C2.5 9.91461 2.5 9.91795 2.5 9.92129C2.5 9.92462 2.5 9.92796 2.5 9.9313C2.5 9.93463 2.5 9.93797 2.5 9.9413C2.5 9.94463 2.5 9.94796 2.5 9.95129C2.5 9.95462 2.5 9.95795 2.5 9.96127C2.5 9.9646 2.5 9.96793 2.5 9.97125C2.5 9.97457 2.5 9.97789 2.5 9.98121C2.5 9.98453 2.5 9.98785 2.5 9.99117C2.5 9.99449 2.5 9.9978 2.5 10.0011C2.5 10.0044 2.5 10.0077 2.5 10.0111C2.5 10.0144 2.5 10.0177 2.5 10.021C2.5 10.0243 2.5 10.0276 2.5 10.0309C2.5 10.0342 2.5 10.0375 2.5 10.0408C2.5 10.0441 2.5 10.0474 2.5 10.0507C2.5 10.054 2.5 10.0573 2.5 10.0606C2.5 10.0639 2.5 10.0672 2.5 10.0705C2.5 10.0738 2.5 10.0771 2.5 10.0803C2.5 10.0836 2.5 10.0869 2.5 10.0902C2.5 10.0935 2.5 10.0968 2.5 10.1001C2.5 10.1033 2.5 10.1066 2.5 10.1099C2.5 10.1132 2.5 10.1165 2.5 10.1197C2.5 10.123 2.5 10.1263 2.5 10.1296C2.5 10.1328 2.5 10.1361 2.5 10.1394C2.5 10.1426 2.5 10.1459 2.5 10.1492C2.5 10.1524 2.5 10.1557 2.5 10.159C2.5 10.1622 2.5 10.1655 2.5 10.1688C2.5 10.172 2.5 10.1753 2.5 10.1785C2.5 10.1818 2.5 10.185 2.5 10.1883C2.5 10.1915 2.5 10.1948 2.5 10.198C2.5 10.2013 2.5 10.2045 2.5 10.2078C2.5 10.211 2.5 10.2143 2.5 10.2175C2.5 10.2208 2.5 10.224 2.5 10.2272C2.5 10.2305 2.5 10.2337 2.5 10.237C2.5 10.2402 2.5 10.2434 2.5 10.2467C2.5 10.2499 2.5 10.2531 2.5 10.2564C2.5 10.2596 2.5 10.2628 2.5 10.266C2.5 10.2693 2.5 10.2725 2.5 10.2757C2.5 10.2789 2.5 10.2822 2.5 10.2854C2.5 10.2886 2.5 10.2918 2.5 10.295C2.5 10.2982 2.5 10.3015 2.5 10.3047C2.5 10.3079 2.5 10.3111 2.5 10.3143C2.5 10.3175 2.5 10.3207 2.5 10.3239C2.5 10.3271 2.5 10.3303 2.5 10.3335C2.5 10.3367 2.5 10.3399 2.5 10.3431C2.5 10.3463 2.5 10.3495 2.5 10.3527C2.5 10.3559 2.5 10.3591 2.5 10.3623C2.5 10.3655 2.5 10.3687 2.5 10.3719C2.5 10.3751 2.5 10.3783 2.5 10.3814C2.5 10.3846 2.5 10.3878 2.5 10.391C2.5 10.3942 2.5 10.3973 2.5 10.4005C2.5 10.4037 2.5 10.4069 2.5 10.41C2.5 10.4132 2.5 10.4164 2.5 10.4196C2.5 10.4227 2.5 10.4259 2.5 10.4291C2.5 10.4322 2.5 10.4354 2.5 10.4386C2.5 10.4417 2.5 10.4449 2.5 10.448C2.5 10.4512 2.5 10.4544 2.5 10.4575C2.5 10.4607 2.5 10.4638 2.5 10.467C2.5 10.4701 2.5 10.4733 2.5 10.4764C2.5 10.4796 2.5 10.4827 2.5 10.4859C2.5 10.489 2.5 10.4922 2.5 10.4953C2.5 10.4984 2.5 10.5016 2.5 10.5047C2.5 10.5079 2.5 10.511 2.5 10.5141C2.5 10.5173 2.5 10.5204 2.5 10.5235C2.5 10.5266 2.5 10.5298 2.5 10.5329C2.5 10.536 2.5 10.5392 2.5 10.5423C2.5 10.5454 2.5 10.5485 2.5 10.5516C2.5 10.5548 2.5 10.5579 2.5 10.561C2.5 10.5641 2.5 10.5672 2.5 10.5703C2.5 10.5734 2.5 10.5765 2.5 10.5797C2.5 10.5828 2.5 10.5859 2.5 10.589C2.5 10.5921 2.5 10.5952 2.5 10.5983C2.5 10.6014 2.5 10.6045 2.5 10.6076C2.5 10.6107 2.5 10.6138 2.5 10.6169C2.5 10.6199 2.5 10.623 2.5 10.6261C2.5 10.6292 2.5 10.6323 2.5 10.6354C2.5 10.6385 2.5 10.6416 2.5 10.6446C2.5 10.6477 2.5 10.6508 2.5 10.6539C2.5 10.6569 2.5 10.66 2.5 10.6631C2.5 10.6662 2.5 10.6692 2.5 10.6723C2.5 10.6754 2.5 10.6784 2.5 10.6815C2.5 10.6846 2.5 10.6876 2.5 10.6907C2.5 10.6938 2.5 10.6968 2.5 10.6999C2.5 10.7029 2.5 10.706 2.5 10.709C2.5 10.7121 2.5 10.7151 2.5 10.7182C2.5 10.7212 2.5 10.7243 2.5 10.7273C2.5 10.7304 2.5 10.7334 2.5 10.7365C2.5 10.7395 2.5 10.7425 2.5 10.7456C2.5 10.7486 2.5 10.7517 2.5 10.7547C2.5 10.7577 2.5 10.7608 2.5 10.7638C2.5 10.7668 2.5 10.7698 2.5 10.7729C2.5 10.7759 2.5 10.7789 2.5 10.7819C2.5 10.785 2.5 10.788 2.5 10.791C2.5 10.794 2.5 10.797 2.5 10.8C2.5 10.8031 2.5 10.8061 2.5 10.8091C2.5 10.8121 2.5 10.8151 2.5 10.8181C2.5 10.8211 2.5 10.8241 2.5 10.8271C2.5 10.8301 2.5 10.8331 2.5 10.8361C2.5 10.8391 2.5 10.8421 2.5 10.8451C2.5 10.8481 2.5 10.8511 2.5 10.8541C2.5 10.8571 2.5 10.86 2.5 10.863C2.5 10.866 2.5 10.869 2.5 10.872C2.5 10.875 2.5 10.8779 2.5 10.8809C2.5 10.8839 2.5 10.8869 2.5 10.8898C2.5 10.8928 2.5 10.8958 2.5 10.8987C2.5 10.9017 2.5 10.9047 2.5 10.9076C2.5 10.9106 2.5 10.9136 2.5 10.9165C2.5 10.9195 2.5 10.9224 2.5 10.9254C2.5 10.9284 2.5 10.9313 2.5 10.9343C2.5 10.9372 2.5 10.9402 2.5 10.9431C2.5 10.9461 2.5 10.949 2.5 10.9519C2.5 10.9549 2.5 10.9578 2.5 10.9608C2.5 10.9637 2.5 10.9666 2.5 10.9696C2.5 10.9725 2.5 10.9754 2.5 10.9784C2.5 10.9813 2.5 10.9842 2.5 10.9872C2.5 10.9901 2.5 10.993 2.5 10.9959C2.5 10.9988 2.5 11.0018 2.5 11.0047C2.5 11.0076 2.5 11.0105 2.5 11.0134C2.5 11.0163 2.5 11.0193 2.5 11.0222C2.5 11.0251 2.5 11.028 2.5 11.0309C2.5 11.0338 2.5 11.0367 2.5 11.0396C2.5 11.0425 2.5 11.0454 2.5 11.0483C2.5 11.0512 2.5 11.0541 2.5 11.057C2.5 11.0598 2.5 11.0627 2.5 11.0656C2.5 11.0685 2.5 11.0714 2.5 11.0743C2.5 11.0772 2.5 11.08 2.5 11.0829C2.5 11.0858 2.5 11.0887 2.5 11.0915C2.5 11.0944 2.5 11.0973 2.5 11.1002C2.5 11.103 2.5 11.1059 2.5 11.1088C2.5 11.1116 2.5 11.1145 2.5 11.1173C2.5 11.1202 2.5 11.1231 2.5 11.1259C2.5 11.1288 2.5 11.1316 2.5 11.1345C2.5 11.1373 2.5 11.1402 2.5 11.143C2.5 11.1459 2.5 11.1487 2.5 11.1516C2.5 11.1544 2.5 11.1572 2.5 11.1601C2.5 11.1629 2.5 11.1657 2.5 11.1686C2.5 11.1714 2.5 11.1742 2.5 11.1771C2.5 11.1799 2.5 11.1827 2.5 11.1856C2.5 11.1884 2.5 11.1912 2.5 11.194C2.5 11.1968 2.5 11.1997 2.5 11.2025C2.5 11.2053 2.5 11.2081 2.5 11.2109C2.5 11.2137 2.5 11.2165 2.5 11.2193C2.5 11.2221 2.5 11.2249 2.5 11.2277C2.5 11.2305 2.5 11.2333 2.5 11.2361C2.5 11.2389 2.5 11.2417 2.5 11.2445C2.5 11.2473 2.5 11.2501 2.5 11.2529C2.5 11.2557 2.5 11.2585 2.5 11.2612C2.5 11.264 2.5 11.2668 2.5 11.2696C2.5 11.2724 2.5 11.2751 2.5 11.2779C2.5 11.2807 2.5 11.2835 2.5 11.2862C2.5 11.289 2.5 11.2918 2.5 11.2945C2.5 11.2973 2.5 11.3 2.5 11.3028C2.5 11.3056 2.5 11.3083 2.5 11.3111C2.5 11.3138 2.5 11.3166 2.5 11.3193C2.5 11.3221 2.5 11.3248 2.5 11.3276C2.5 11.3303 2.5 11.3331 2.5 11.3358C2.5 11.3385 2.5 11.3413 2.5 11.344C2.5 11.3467 2.5 11.3495 2.5 11.3522C2.5 11.3549 2.5 11.3577 2.5 11.3604C2.5 11.3631 2.5 11.3658 2.5 11.3686C2.5 11.3713 2.5 11.374 2.5 11.3767C2.5 11.3794 2.5 11.3821 2.5 11.3849C2.5 11.3876 2.5 11.3903 2.5 11.393C2.5 11.3957 2.5 11.3984 2.5 11.4011C2.5 11.4038 2.5 11.4065 2.5 11.4092C2.5 11.4119 2.5 11.4146 2.5 11.4173C2.5 11.42 2.5 11.4227 2.5 11.4253C2.5 11.428 2.5 11.4307 2.5 11.4334C2.5 11.4361 2.5 11.4388 2.5 11.4414C2.5 11.4441 2.5 11.4468 2.5 11.4495C2.5 11.4521 2.5 11.4548 2.5 11.4575C2.5 11.4601 2.5 11.4628 2.5 11.4655C2.5 11.4681 2.5 11.4708 2.5 11.4734C2.5 11.4761 2.5 11.4788 2.5 11.4814C2.5 11.4841 2.5 11.4867 2.5 11.4894C2.5 11.492 2.5 11.4947 2.5 11.4973C2.5 11.4999 2.5 11.5026 2.5 11.5052C2.5 11.5079 2.5 11.5105 2.5 11.5131C2.5 11.5158 2.5 11.5184 2.5 11.521C2.5 11.5236 2.5 11.5263 2.5 11.5289C2.5 11.5315 2.5 11.5341 2.5 11.5367C2.5 11.5394 2.5 11.542 2.5 11.5446C2.5 11.5472 2.5 11.5498 2.5 11.5524C2.5 11.555 2.5 11.5576 2.5 11.5602C2.5 11.5628 2.5 11.5654 2.5 11.568C2.5 11.5706 2.5 11.5732 2.5 11.5758C2.5 11.5784 2.5 11.581 2.5 11.5836C2.5 11.5862 2.5 11.5888 2.5 11.5913C2.5 11.5939 2.5 11.5965 2.5 11.5991C2.5 11.6017 2.5 11.6042 2.5 11.6068C2.5 11.6094 2.5 11.6119 2.5 11.6145C2.5 11.6171 2.5 11.6196 2.5 11.6222C2.5 11.6248 2.5 11.6273 2.5 11.6299C2.5 11.6324 2.5 11.635 2.5 11.6375C2.5 11.6401 2.5 11.6426 2.5 11.6452C2.5 11.6477 2.5 11.6503 2.5 11.6528C2.5 11.6554 2.5 11.6579 2.5 11.6604C2.5 11.663 2.5 11.6655 2.5 11.668C2.5 11.6706 2.5 11.6731 2.5 11.6756C2.5 11.6781 2.5 11.6807 2.5 11.6832C2.5 11.6857 2.5 11.6882 2.5 11.6907C2.5 11.6932 2.5 11.6958 2.5 11.6983C2.5 11.7008 2.5 11.7033 2.5 11.7058C2.5 11.7083 2.5 11.7108 2.5 11.7133C2.5 11.7158 2.5 11.7183 2.5 11.7208C2.5 11.7233 2.5 11.7258 2.5 11.7282C2.5 11.7307 2.5 11.7332 2.5 11.7357C2.5 11.7382 2.5 11.7407 2.5 11.7431C2.5 11.7456 2.5 11.7481 2.5 11.7506C2.5 11.753 2.5 11.7555 2.5 11.758C2.5 11.7604 2.5 11.7629 2.5 11.7654C2.5 11.7678 2.5 11.7703 2.5 11.7727C2.5 11.7752 2.5 11.7776 2.5 11.7801C2.5 11.7825 2.5 11.785 2.5 11.7874C2.5 11.7899 2.5 11.7923 2.5 11.7948C2.5 11.7972 2.5 11.7996 2.5 11.8021C2.5 11.8045 2.5 11.8069 2.5 11.8094C2.5 11.8118 2.5 11.8142 2.5 11.8166C2.5 11.8191 2.5 11.8215 2.5 11.8239C2.5 11.8263 2.5 11.8287 2.5 11.8311C2.5 11.8336 2.5 11.836 2.5 11.8384C2.5 11.8408 2.5 11.8432 2.5 11.8456C2.5 11.848 2.5 11.8504 2.5 11.8528C2.5 11.8552 2.5 11.8576 2.5 11.86C2.5 11.8624 2.5 11.8647 2.5 11.8671C2.5 11.8695 2.5 11.8719 2.5 11.8743C2.5 11.8766 2.5 11.879 2.5 11.8814C2.5 11.8838 2.5 11.8861 2.5 11.8885C2.5 11.8909 2.5 11.8932 2.5 11.8956C2.5 11.898 2.5 11.9003 2.5 11.9027C2.5 11.905 2.5 11.9074 2.5 11.9097C2.5 11.9121 2.5 11.9144 2.5 11.9168C2.5 11.9191 2.5 11.9215 2.5 11.9238C2.5 11.9262 2.5 11.9285 2.5 11.9308C2.5 11.9332 2.5 11.9355 2.5 11.9378C2.5 11.9402 2.5 11.9425 2.5 11.9448C2.5 11.9471 2.5 11.9494 2.5 11.9518C2.5 11.9541 2.5 11.9564 2.5 11.9587C2.5 11.961 2.5 11.9633 2.5 11.9656C2.5 11.9679 2.5 11.9702 2.5 11.9725C2.5 11.9748 2.5 11.9771 2.5 11.9794C2.5 11.9817 2.5 11.984 2.5 11.9863C2.5 11.9886 2.5 11.9909 2.5 11.9932C2.5 11.9954 2.5 11.9977 2.5 12H3.5ZM3.5 6.99995C3.5 3.96239 5.96243 1.5 9 1.5V0.5C5.41015 0.5 2.5 3.41009 2.5 6.99995H3.5ZM15.5 6.99995C15.5 3.41009 12.5898 0.5 9 0.5V1.5C12.0376 1.5 14.5 3.96239 14.5 6.99995H15.5ZM6.5 16C6.5 17.3807 7.61929 18.5 9 18.5V17.5C8.17157 17.5 7.5 16.8284 7.5 16H6.5ZM9 18.5C10.3807 18.5 11.5 17.3807 11.5 16H10.5C10.5 16.8284 9.82843 17.5 9 17.5V18.5Z" fill="#F2F2F2"/>
</svg>
