<svg width="30" height="30" viewBox="0 0 30 30" fill="none" xmlns="http://www.w3.org/2000/svg">
<path d="M15 30C23.2843 30 30 23.2843 30 15C30 6.71573 23.2843 0 15 0C6.71573 0 0 6.71573 0 15C0 23.2843 6.71573 30 15 30Z" fill="#F2967F"/>
<path d="M10.9317 11.4485C10.5268 11.507 9.69758 11.6582 9.01953 11.9753V11.9851C7.50246 12.8046 6.52197 14.4046 6.52197 16.1753C6.52197 17.7753 7.31709 19.2338 8.58539 20.1021V15.1948C8.58051 14.6826 8.96587 14.229 9.05856 14.1363C9.34636 13.8436 10.0147 13.4875 11.1756 13.5655L15.8683 13.5802C16.2244 13.0826 16.9805 11.9899 17.1122 11.4241H11.5659C11.5708 11.4241 11.0781 11.429 10.9317 11.4485ZM19.0634 8.71188C18.6439 8.00456 18.039 7.41432 17.3171 7.00944C16.9708 6.81432 16.5708 6.70212 16.1659 6.68261L16.1171 6.67773H9.02929V11.4777C9.43417 11.2972 10.1122 11.0972 11.1854 11.0387V8.83871H16.0683C16.1415 8.84359 16.2098 8.8631 16.2683 8.89237C17.0927 9.35578 17.5805 10.1997 17.5805 11.1509C17.5805 11.2436 17.5756 11.3363 17.5659 11.4241L16.1708 13.8338L13.4439 17.5753L13.3073 17.7802C12.8829 18.3119 12.2732 18.6533 11.6049 18.7363V20.9021C12.961 20.8094 14.2 20.1558 15.0439 19.068L15.0732 19.0338L15.2098 18.8241L18.0829 14.8875L18.6537 14.1363C18.6537 14.1363 18.6537 14.1363 18.6586 14.1314L18.6634 14.1265C18.7464 14.0241 18.8293 13.9119 18.9025 13.8046C18.9025 13.8046 18.9025 13.8046 18.9073 13.8046C19.1903 13.3802 19.6244 12.5607 19.7122 11.4241C19.7171 11.3265 19.722 11.2338 19.722 11.1363C19.7268 10.2777 19.4976 9.43871 19.0634 8.71188ZM22.039 13.4826C21.4634 12.8143 20.7512 12.2875 19.961 11.9314C19.8781 12.4338 19.6829 13.2241 19.1951 13.9558C19.6537 14.1802 20.0634 14.4972 20.4 14.8924C20.9854 15.5704 21.3122 16.4436 21.3122 17.3412C21.3171 18.3412 20.922 19.2875 20.2 20.0143C19.4586 20.7607 18.4829 21.1704 17.4439 21.1704H16.9464L11.1317 21.1558L11.1659 13.8582C11.0878 13.8533 10.0878 13.8046 9.39514 14.3558C9.12197 14.5753 8.97075 14.907 8.97075 15.2582L9.0049 23.2924L16.9659 23.3265H17.439C19.0537 23.3265 20.5756 22.6924 21.722 21.5363C22.8537 20.3997 23.4683 18.907 23.4586 17.3314C23.4683 15.9168 22.9561 14.5509 22.039 13.4826Z" fill="#FFD5CA"/>
</svg>
