<svg width="14" height="14" viewBox="0 0 14 14" fill="none" xmlns="http://www.w3.org/2000/svg">
<path d="M11.3168 8.66544C10.8466 8.5643 10.4746 8.7826 10.1453 8.97325C9.80797 9.16972 9.1666 9.69 8.79897 9.55684C6.91676 8.78187 5.14649 7.13442 4.38017 5.24466C4.24511 4.86918 4.76297 4.22374 4.95798 3.88246C5.14721 3.5521 5.361 3.17662 5.2635 2.70291C5.17538 2.27722 4.03565 0.826971 3.63263 0.43039C3.36684 0.168429 3.09454 0.0243499 2.81503 0.00106446C1.76414 -0.0440512 0.590461 1.35817 0.384617 1.69363C-0.131079 2.40893 -0.128189 3.36072 0.393284 4.51481C1.65002 7.61469 6.40323 12.2929 9.51473 13.5969C10.0889 13.8654 10.614 14 11.0857 14C11.5472 14 11.9581 13.8712 12.3113 13.6158C12.5778 13.4623 14.0375 12.2303 13.9993 11.1512C13.9761 10.8761 13.8324 10.601 13.5738 10.3347C13.1802 9.92795 11.7393 8.75422 11.3168 8.66544" fill="#FF481A"/>
</svg>
