<svg width="30" height="30" viewBox="0 0 30 30" fill="none" xmlns="http://www.w3.org/2000/svg">
<circle cx="15" cy="15" r="15" fill="#FF481A"/>
<path d="M19.6251 16.7844C19.1213 16.676 18.7228 16.9099 18.3699 17.1142C18.0085 17.3247 17.3214 17.8821 16.9275 17.7395C14.9108 16.9091 13.0141 15.144 12.193 13.1193C12.0483 12.717 12.6032 12.0254 12.8121 11.6598C13.0149 11.3058 13.2439 10.9035 13.1395 10.396C13.0451 9.93988 11.8239 8.38604 11.3921 7.96113C11.1073 7.68046 10.8156 7.52609 10.5161 7.50114C9.39015 7.4528 8.13264 8.95518 7.91209 9.3146C7.35956 10.081 7.36265 11.1008 7.92138 12.3373C9.26788 15.6586 14.3606 20.6709 17.6944 22.0681C18.3096 22.3558 18.8722 22.5 19.3775 22.5C19.872 22.5 20.3123 22.362 20.6907 22.0883C20.9763 21.9238 22.5402 20.6039 22.4992 19.4477C22.4744 19.153 22.3204 18.8583 22.0434 18.5729C21.6217 18.1371 20.0778 16.8795 19.6251 16.7844Z" fill="white"/>
</svg>
