<svg width="30" height="12" viewBox="0 0 30 12" fill="none" xmlns="http://www.w3.org/2000/svg">
<circle cx="6.5523" cy="9.51714" r="1.67241" fill="white" stroke="#4F4F4F"/>
<circle cx="24.6548" cy="9.51714" r="1.67241" fill="white" stroke="#4F4F4F"/>
<path d="M2.00792 9.13519C2.87888 9.21383 3.74988 9.21383 3.74988 9.21383C3.74988 9.21383 3.71418 8.61322 3.87988 8.17846C4.15569 7.45475 4.45126 7.06344 5.17988 6.81545C6.16595 6.47984 6.97388 6.50091 7.97492 6.88098C8.91088 7.43143 9.10588 7.70664 9.41792 8.5061C9.55442 8.99376 9.54788 9.51526 9.54788 9.51526H21.6639C21.6639 9.51526 21.577 8.76789 21.7289 8.38815C21.8555 8.0715 21.8999 7.96853 22.1319 7.71976C22.4963 7.32892 22.8057 7.07462 23.3019 6.88098C24.1079 6.56644 24.7041 6.56285 25.5509 6.88098C26.4205 7.20766 26.9362 7.62285 27.2019 8.51921C27.3458 9.0047 27.3059 9.51526 27.3059 9.51526C27.3059 9.51526 27.855 9.53443 28.1899 9.44973C28.4872 9.37453 28.6573 9.34338 28.8919 9.1614C29.0609 8.44057 29.0089 8.00809 28.8919 6.88098C28.6579 6.2519 28.4389 5.97851 27.9819 5.54418C27.3657 4.95851 26.8395 4.85659 26.0449 4.56123C23.4059 4.22047 20.5199 4.22047 20.5199 4.22047C18.672 3.10471 18.2709 2.71327 15.7879 1.36337C14.1759 1.07503 8.70288 0.878435 4.73792 1.36337C3.21899 2.32753 2.35892 3.08026 1.48792 4.63987C1.35273 5.29635 1.48792 5.5966 1.48792 6.35674C1.35673 6.55564 1.18323 6.58589 1.05892 6.78924C0.967901 7.3528 0.993886 7.6149 1.05892 8.17846C1.68288 8.97792 1.56613 8.84686 2.00792 9.13519Z" fill="white" stroke="#4F4F4F"/>
</svg>
