<svg width="24" height="24" viewBox="0 0 24 24" fill="none" xmlns="http://www.w3.org/2000/svg">
<rect width="24" height="24" rx="12" fill="#F2967F"/>
<path d="M17.0557 9.3712L10.8535 17.1626C10.5689 17.5164 10.1494 17.7154 9.69998 17.7228L7.22811 17.7523C7.09328 17.7523 6.98092 17.6638 6.95096 17.5385L6.38917 15.1724C6.2918 14.7375 6.38917 14.2878 6.67381 13.9414L11.0708 8.41294C11.1457 8.32448 11.2805 8.31048 11.3704 8.37608L13.2205 9.8061C13.3404 9.90193 13.5052 9.95353 13.6775 9.93142C14.0445 9.88719 14.2917 9.56285 14.2542 9.2164C14.2318 9.03949 14.1419 8.89207 14.022 8.7815C13.9846 8.75202 12.2243 7.38096 12.2243 7.38096C12.1119 7.29251 12.0895 7.13034 12.1793 7.02051L12.876 6.1426C13.5202 5.33913 14.6437 5.26542 15.5501 5.96569L16.5913 6.76915C17.0182 7.09349 17.3029 7.52102 17.4002 7.97066C17.5126 8.46527 17.3928 8.95104 17.0557 9.3712Z" fill="white"/>
</svg>
