<svg width="110" height="132" viewBox="0 0 110 132" fill="none" xmlns="http://www.w3.org/2000/svg">
<circle cx="55" cy="77" r="55" fill="#E0E0E0"/>
<rect x="9.5" y="0.5" width="91" height="118" rx="2.5" fill="white" stroke="#BDBDBD"/>
<ellipse cx="35" cy="40" rx="6" ry="8" fill="#C4C4C4"/>
<ellipse cx="73" cy="40" rx="6" ry="8" fill="#C4C4C4"/>
<path d="M29.1927 26.6803C31.5188 26.7066 34.5342 24.9785 35.7512 24.1111" stroke="#BDBDBD" stroke-width="3" stroke-linecap="round"/>
<path d="M76.8073 26.6803C74.4812 26.7066 71.4658 24.9785 70.2488 24.1111" stroke="#BDBDBD" stroke-width="3" stroke-linecap="round"/>
<path d="M49 58C49 58 51.9118 60 54.5 60C57.0882 60 60 58 60 58" stroke="#BDBDBD" stroke-width="3" stroke-linecap="round"/>
<line x1="30.5" y1="82.5" x2="77.5" y2="82.5" stroke="#E0E0E0" stroke-width="3" stroke-linecap="round"/>
<line x1="30.5" y1="93.5" x2="77.5" y2="93.5" stroke="#E0E0E0" stroke-width="3" stroke-linecap="round"/>
<line x1="30.5" y1="106.5" x2="77.5" y2="106.5" stroke="#E0E0E0" stroke-width="3" stroke-linecap="round"/>
</svg>
