<svg width="28" height="28" viewBox="0 0 28 28" fill="none" xmlns="http://www.w3.org/2000/svg">
<path fill-rule="evenodd" clip-rule="evenodd" d="M0 13.7316C0 20.5211 4.95864 26.1664 11.443 27.3107L11.5195 27.2495C11.4941 27.2446 11.4687 27.2396 11.4433 27.2345V17.5461H8.01037V13.7317H11.4433V10.6803C11.4433 7.24736 13.6556 5.34019 16.7833 5.34019C17.7751 5.34019 18.8431 5.49276 19.8348 5.64534V9.15453H18.0802C16.4019 9.15453 16.0205 9.99368 16.0205 11.0617V13.7317H19.6822L19.072 17.5461H16.0205V27.2345C15.9949 27.2396 15.9694 27.2446 15.9439 27.2496L16.0202 27.3107C22.5046 26.1664 27.4632 20.5211 27.4632 13.7316C27.4632 6.17923 21.284 0 13.7316 0C6.17923 0 0 6.17923 0 13.7316Z" fill="#9D9D9D"/>
</svg>
