<svg width="292" height="51" viewBox="0 0 292 51" fill="none" xmlns="http://www.w3.org/2000/svg">
<path d="M51.59 36H58.85C63.77 36 66.68 33.3 66.68 30C66.68 28.38 65.93 26.94 64.55 25.95C65.93 24.93 66.68 23.49 66.68 21.84C66.68 18.54 63.77 15.87 58.85 15.87H51.59V36ZM55.43 24.42V19.47H58.85C61.28 19.47 62.81 20.49 62.81 21.93C62.81 23.37 61.28 24.42 58.85 24.42H55.43ZM55.43 32.4V27.48H58.85C61.28 27.48 62.81 28.5 62.81 29.91C62.81 31.35 61.28 32.4 58.85 32.4H55.43ZM76.3339 36.24C80.6239 36.24 84.0739 32.76 84.0739 28.5C84.0739 24.24 80.6239 20.76 76.3339 20.76C72.0739 20.76 68.5939 24.24 68.5939 28.5C68.5939 32.76 72.0739 36.24 76.3339 36.24ZM76.4839 32.64C74.2039 32.64 72.5839 30.9 72.5839 28.5C72.5839 26.1 74.2039 24.36 76.4839 24.36C78.7339 24.36 80.3839 26.1 80.3839 28.5C80.3839 30.9 78.7339 32.64 76.4839 32.64ZM91.8547 36.24C95.7847 36.24 97.9447 34.35 97.9447 31.68C97.9447 26.7 88.9447 26.91 88.9447 25.32C88.9447 24.57 89.9047 24.09 91.3447 24.09C93.8647 24.09 95.7247 25.92 95.7247 25.92L98.1547 23.73C98.1547 23.73 95.6947 20.76 91.4347 20.76C87.5047 20.76 85.3747 22.65 85.3747 25.32C85.3747 30.3 94.3447 30.09 94.3447 31.68C94.3447 32.43 93.4147 32.91 91.9447 32.91C89.4247 32.91 87.5947 31.08 87.5947 31.08L85.1647 33.27C85.1647 33.27 87.6247 36.24 91.8547 36.24ZM106.232 36.24C110.162 36.24 112.322 34.35 112.322 31.68C112.322 26.7 103.322 26.91 103.322 25.32C103.322 24.57 104.282 24.09 105.722 24.09C108.242 24.09 110.102 25.92 110.102 25.92L112.532 23.73C112.532 23.73 110.072 20.76 105.812 20.76C101.882 20.76 99.7524 22.65 99.7524 25.32C99.7524 30.3 108.722 30.09 108.722 31.68C108.722 32.43 107.792 32.91 106.322 32.91C103.802 32.91 101.972 31.08 101.972 31.08L99.5424 33.27C99.5424 33.27 102.002 36.24 106.232 36.24ZM122.825 20.76C121.265 20.76 119.825 21.21 118.625 22.02V13.65H114.785V36H118.625V34.98C119.825 35.79 121.265 36.24 122.825 36.24C127.115 36.24 130.565 32.76 130.565 28.5C130.565 24.24 127.115 20.76 122.825 20.76ZM122.705 32.64C120.425 32.64 118.805 30.9 118.805 28.5C118.805 26.1 120.425 24.36 122.705 24.36C124.955 24.36 126.605 26.1 126.605 28.5C126.605 30.9 124.955 32.64 122.705 32.64ZM142.729 21V29.25C142.729 31.26 141.409 32.7 139.579 32.7C137.749 32.7 136.459 31.29 136.459 29.28V21H132.529V29.37C132.529 33.27 135.019 36.24 138.709 36.24C140.209 36.24 141.649 35.58 142.729 34.5V36H146.569V21H142.729ZM155.518 36.24C159.448 36.24 161.608 34.35 161.608 31.68C161.608 26.7 152.608 26.91 152.608 25.32C152.608 24.57 153.568 24.09 155.008 24.09C157.528 24.09 159.388 25.92 159.388 25.92L161.818 23.73C161.818 23.73 159.358 20.76 155.098 20.76C151.168 20.76 149.038 22.65 149.038 25.32C149.038 30.3 158.008 30.09 158.008 31.68C158.008 32.43 157.078 32.91 155.608 32.91C153.088 32.91 151.258 31.08 151.258 31.08L148.828 33.27C148.828 33.27 151.288 36.24 155.518 36.24ZM170.42 36H174.26V29.28H177.71C182.6 29.28 185.51 26.28 185.51 22.56C185.51 18.87 182.6 15.87 177.71 15.87H170.42V36ZM174.26 25.65V19.47H177.71C180.11 19.47 181.64 20.76 181.64 22.56C181.64 24.36 180.11 25.65 177.71 25.65H174.26ZM195.442 20.76C193.942 20.76 192.472 21.42 191.392 22.5V21H187.552V36H191.392V27.75C191.392 25.74 192.712 24.3 194.542 24.3C195.052 24.3 195.772 24.66 196.462 25.2L197.512 21.18C196.882 20.91 196.192 20.76 195.442 20.76ZM209.619 30.06C209.409 30.69 207.669 32.58 205.089 32.58C203.529 32.58 202.299 31.65 201.759 30.42L212.799 28.41C212.829 28.29 212.799 28.17 212.799 28.02C212.649 23.88 209.259 20.58 205.089 20.58C200.799 20.58 197.349 24.03 197.349 28.32C197.349 29.28 197.529 30.24 197.889 31.11C199.059 34.14 202.089 36.06 205.089 36.06C210.309 36.06 212.559 31.77 212.829 31.08L209.619 30.06ZM201.309 27.03C201.639 25.41 203.019 24.12 204.609 24C206.169 23.85 207.729 24.78 208.449 26.22L201.219 27.51L201.309 27.03ZM232.728 20.76C230.268 20.76 228.438 21.72 227.358 23.19C226.278 21.69 224.598 20.76 222.528 20.76C221.028 20.76 219.558 21.42 218.478 22.5V21H214.638V36H218.478V27.75C218.478 25.74 219.798 24.3 221.628 24.3C223.458 24.3 224.778 25.71 224.778 27.72V36H228.678V27.75C228.678 25.74 229.998 24.3 231.828 24.3C233.658 24.3 234.948 25.71 234.948 27.72V36H238.878V27.63C238.878 23.73 236.388 20.76 232.728 20.76ZM243.772 18.3C244.912 18.3 245.872 17.37 245.872 16.2C245.872 15.06 244.912 14.13 243.772 14.13C242.632 14.13 241.672 15.06 241.672 16.2C241.672 17.37 242.632 18.3 243.772 18.3ZM241.852 36H245.692V21H241.852V36ZM258.864 21V29.25C258.864 31.26 257.544 32.7 255.714 32.7C253.884 32.7 252.594 31.29 252.594 29.28V21H248.664V29.37C248.664 33.27 251.154 36.24 254.844 36.24C256.344 36.24 257.784 35.58 258.864 34.5V36H262.704V21H258.864ZM283.595 20.76C281.135 20.76 279.305 21.72 278.225 23.19C277.145 21.69 275.465 20.76 273.395 20.76C271.895 20.76 270.425 21.42 269.345 22.5V21H265.505V36H269.345V27.75C269.345 25.74 270.665 24.3 272.495 24.3C274.325 24.3 275.645 25.71 275.645 27.72V36H279.545V27.75C279.545 25.74 280.865 24.3 282.695 24.3C284.525 24.3 285.815 25.71 285.815 27.72V36H289.745V27.63C289.745 23.73 287.255 20.76 283.595 20.76Z" fill="white"/>
<path d="M21 44C32.598 44 42 34.598 42 23C42 11.402 32.598 2 21 2C9.40202 2 0 11.402 0 23C0 34.598 9.40202 44 21 44Z" fill="#FF481A"/>
<path d="M15.3045 18.0274C14.7377 18.1094 13.5767 18.3211 12.6274 18.765V18.7786C10.5035 19.926 9.13086 22.1659 9.13086 24.645C9.13086 26.885 10.244 28.9269 12.0196 30.1425V23.2723C12.0128 22.5552 12.5523 21.9201 12.6821 21.7903C13.085 21.3806 14.0206 20.882 15.646 20.9913L22.2157 21.0118C22.7143 20.3152 23.7728 18.7855 23.9572 17.9933H16.1923C16.1992 17.9933 15.5094 18.0001 15.3045 18.0274ZM26.6889 14.1962C26.1016 13.206 25.2548 12.3796 24.244 11.8128C23.7591 11.5396 23.1992 11.3825 22.6323 11.3552L22.564 11.3484H12.6411V18.0684C13.2079 17.8157 14.1572 17.5357 15.6596 17.4538V14.3738H22.4957C22.5982 14.3806 22.6938 14.4079 22.7757 14.4489C23.9299 15.0977 24.6128 16.2791 24.6128 17.6108C24.6128 17.7406 24.606 17.8703 24.5923 17.9933L22.6391 21.3669L18.8216 26.605L18.6304 26.8918C18.0362 27.6362 17.1826 28.1142 16.247 28.2303V31.2625C18.1455 31.1328 19.8801 30.2177 21.0616 28.6947L21.1026 28.6469L21.2938 28.3533L25.3162 22.842L26.1152 21.7903C26.1152 21.7903 26.1152 21.7903 26.1221 21.7835L26.1289 21.7767C26.245 21.6333 26.3611 21.4762 26.4635 21.326C26.4635 21.326 26.4635 21.326 26.4704 21.326C26.8665 20.7318 27.4743 19.5845 27.5972 17.9933C27.604 17.8567 27.6109 17.7269 27.6109 17.5903C27.6177 16.3884 27.2967 15.2138 26.6889 14.1962ZM30.8548 20.8752C30.0489 19.9396 29.0518 19.202 27.9455 18.7035C27.8294 19.4069 27.5562 20.5133 26.8733 21.5377C27.5152 21.8518 28.0889 22.2957 28.5601 22.8489C29.3796 23.7981 29.8372 25.0206 29.8372 26.2772C29.844 27.6772 29.2909 29.002 28.2801 30.0196C27.2421 31.0645 25.8762 31.6381 24.4216 31.6381H23.725L15.5845 31.6177L15.6323 21.4011C15.5231 21.3942 14.1231 21.3259 13.1533 22.0977C12.7709 22.405 12.5592 22.8694 12.5592 23.3611L12.607 34.6089L23.7523 34.6567H24.4148C26.6752 34.6567 28.806 33.7689 30.4109 32.1503C31.9952 30.5591 32.8557 28.4694 32.8421 26.2635C32.8557 24.283 32.1387 22.3708 30.8548 20.8752Z" fill="white"/>
</svg>
