<svg viewBox="0 0 20 12" xmlns="http://www.w3.org/2000/svg">
<path d="M19.926 5.59677C19.7684 5.36759 15.9834 0 9.99996 0C4.8657 0 0.29062 5.33677 0.0981169 5.56427C-0.0327056 5.71928 -0.0327056 5.94678 0.0981169 6.1026C0.29062 6.33011 4.8657 11.6669 9.99996 11.6669C15.1342 11.6669 19.7093 6.33011 19.9018 6.1026C20.0226 5.95928 20.0335 5.75178 19.926 5.59677ZM9.99996 10.8335C5.88407 10.8335 1.97065 6.90848 0.976491 5.83346C1.96901 4.75762 5.87825 0.833373 9.99996 0.833373C14.8159 0.833373 18.2151 4.75262 19.0451 5.81096C18.0867 6.8518 14.1509 10.8335 9.99996 10.8335Z" fill="currentColor"/>
<path d="M9.99988 2.5C8.16153 2.5 6.6665 3.99502 6.6665 5.83338C6.6665 7.67173 8.16153 9.16675 9.99988 9.16675C11.8382 9.16675 13.3333 7.67173 13.3333 5.83338C13.3333 3.99502 11.8382 2.5 9.99988 2.5ZM9.99988 8.33346C8.62154 8.33346 7.49984 7.21176 7.49984 5.83342C7.49984 4.45507 8.62154 3.33337 9.99988 3.33337C11.3782 3.33337 12.4999 4.45507 12.4999 5.83342C12.4999 7.21176 11.3782 8.33346 9.99988 8.33346Z" fill="currentColor"/>
</svg>
