<svg width="27" height="27" viewBox="0 0 27 27" fill="none" xmlns="http://www.w3.org/2000/svg">
<path d="M13.3933 0.0527344C9.82303 0.0527344 9.37496 0.0683457 7.97269 0.132159C6.57316 0.196247 5.61787 0.417814 4.78198 0.742907C3.91734 1.07868 3.18389 1.52784 2.45318 2.25882C1.72191 2.98953 1.27275 3.72297 0.935877 4.58733C0.609959 5.42348 0.388116 6.37904 0.325123 7.77801C0.262404 9.18026 0.245972 9.6286 0.245972 13.1989C0.245972 16.7691 0.261857 17.2158 0.325397 18.6181C0.389759 20.0176 0.611329 20.9729 0.936151 21.8088C1.2722 22.6734 1.72137 23.4068 2.45235 24.1376C3.18279 24.8688 3.91625 25.3191 4.78034 25.6548C5.61677 25.9799 6.57234 26.2015 7.9716 26.2656C9.37387 26.3294 9.82166 26.345 13.3917 26.345C16.9623 26.345 17.409 26.3294 18.8112 26.2656C20.2108 26.2015 21.1672 25.9799 22.0036 25.6548C22.868 25.3191 23.6003 24.8688 24.3308 24.1376C25.062 23.4068 25.5112 22.6734 25.8481 21.809C26.1712 20.9729 26.3931 20.0173 26.4588 18.6184C26.5218 17.2161 26.5382 16.7691 26.5382 13.1989C26.5382 9.6286 26.5218 9.18053 26.4588 7.77828C26.3931 6.37876 26.1712 5.42348 25.8481 4.5876C25.5112 3.72297 25.062 2.98953 24.3308 2.25882C23.5995 1.52757 22.8682 1.07841 22.0028 0.742907C21.1647 0.417814 20.2089 0.196247 18.8093 0.132159C17.4071 0.0683457 16.9606 0.0527344 13.3892 0.0527344H13.3933ZM12.214 2.42178C12.564 2.42123 12.9546 2.42178 13.3933 2.42178C16.9034 2.42178 17.3194 2.43438 18.7055 2.49737C19.9873 2.55598 20.6829 2.77015 21.1464 2.95009C21.7598 3.18836 22.1972 3.47319 22.6571 3.93331C23.1172 4.39342 23.402 4.83163 23.6409 5.44511C23.8208 5.90797 24.0352 6.60362 24.0936 7.88537C24.1566 9.27119 24.1703 9.68748 24.1703 13.1959C24.1703 16.7042 24.1566 17.1205 24.0936 18.5063C24.035 19.7881 23.8208 20.4837 23.6409 20.9466C23.4026 21.5601 23.1172 21.9969 22.6571 22.4568C22.197 22.9169 21.7601 23.2017 21.1464 23.44C20.6835 23.6207 19.9873 23.8344 18.7055 23.893C17.3197 23.956 16.9034 23.9697 13.3933 23.9697C9.88301 23.9697 9.46699 23.956 8.08115 23.893C6.79939 23.8338 6.10373 23.6196 5.64005 23.4397C5.02656 23.2014 4.58835 22.9166 4.12823 22.4565C3.66811 21.9964 3.38327 21.5593 3.14445 20.9455C2.96451 20.4827 2.75006 19.787 2.69173 18.5053C2.62873 17.1194 2.61613 16.7031 2.61613 13.1926C2.61613 9.682 2.62873 9.2679 2.69173 7.88208C2.75034 6.60033 2.96451 5.90468 3.14445 5.44128C3.38273 4.82779 3.66811 4.38959 4.12823 3.92947C4.58835 3.46936 5.02656 3.18453 5.64005 2.94571C6.10346 2.76495 6.79939 2.55132 8.08115 2.49244C9.29389 2.43766 9.76387 2.42123 12.214 2.41849V2.42178ZM20.4107 4.60458C19.5398 4.60458 18.8332 5.31037 18.8332 6.18157C18.8332 7.0525 19.5398 7.75911 20.4107 7.75911C21.2816 7.75911 21.9883 7.0525 21.9883 6.18157C21.9883 5.31064 21.2816 4.60404 20.4107 4.60404V4.60458ZM13.3933 6.44778C9.665 6.44778 6.64218 9.47057 6.64218 13.1989C6.64218 16.9272 9.665 19.9486 13.3933 19.9486C17.1217 19.9486 20.1434 16.9272 20.1434 13.1989C20.1434 9.47057 17.1214 6.44778 13.3931 6.44778H13.3933ZM13.3933 8.81682C15.8133 8.81682 17.7754 10.7786 17.7754 13.1989C17.7754 15.6189 15.8133 17.5809 13.3933 17.5809C10.9731 17.5809 9.01125 15.6189 9.01125 13.1989C9.01125 10.7786 10.9731 8.81682 13.3933 8.81682Z" fill="#9D9D9D"/>
</svg>
