<svg width="39" height="39" viewBox="0 0 39 39" fill="none" xmlns="http://www.w3.org/2000/svg">
<circle cx="19.5" cy="19.5" r="19.5" fill="#D8DADC"/>
<path d="M19 12.442C21.136 12.442 21.3893 12.45 22.2333 12.4887C24.4013 12.5873 25.414 13.616 25.5127 15.768C25.5513 16.6113 25.5587 16.8647 25.5587 19.0007C25.5587 21.1373 25.5507 21.39 25.5127 22.2333C25.4133 24.3833 24.4033 25.414 22.2333 25.5127C21.3893 25.5513 21.1373 25.5593 19 25.5593C16.864 25.5593 16.6107 25.5513 15.7673 25.5127C13.594 25.4133 12.5867 24.38 12.488 22.2327C12.4493 21.3893 12.4413 21.1367 12.4413 19C12.4413 16.864 12.45 16.6113 12.488 15.7673C12.5873 13.616 13.5973 12.5867 15.7673 12.488C16.6113 12.45 16.864 12.442 19 12.442V12.442ZM19 11C16.8273 11 16.5553 11.0093 15.702 11.048C12.7967 11.1813 11.182 12.7933 11.0487 15.7013C11.0093 16.5553 11 16.8273 11 19C11 21.1727 11.0093 21.4453 11.048 22.2987C11.1813 25.204 12.7933 26.8187 15.7013 26.952C16.5553 26.9907 16.8273 27 19 27C21.1727 27 21.4453 26.9907 22.2987 26.952C25.2013 26.8187 26.82 25.2067 26.9513 22.2987C26.9907 21.4453 27 21.1727 27 19C27 16.8273 26.9907 16.5553 26.952 15.702C26.8213 12.7993 25.2073 11.182 22.2993 11.0487C21.4453 11.0093 21.1727 11 19 11V11ZM19 14.892C16.7313 14.892 14.892 16.7313 14.892 19C14.892 21.2687 16.7313 23.1087 19 23.1087C21.2687 23.1087 23.108 21.2693 23.108 19C23.108 16.7313 21.2687 14.892 19 14.892ZM19 21.6667C17.5273 21.6667 16.3333 20.4733 16.3333 19C16.3333 17.5273 17.5273 16.3333 19 16.3333C20.4727 16.3333 21.6667 17.5273 21.6667 19C21.6667 20.4733 20.4727 21.6667 19 21.6667ZM23.2707 13.77C22.74 13.77 22.31 14.2 22.31 14.73C22.31 15.26 22.74 15.69 23.2707 15.69C23.8007 15.69 24.23 15.26 24.23 14.73C24.23 14.2 23.8007 13.77 23.2707 13.77Z" fill="#5A7184"/>
</svg>
