<svg width="27" height="27" viewBox="0 0 27 27" fill="none" xmlns="http://www.w3.org/2000/svg">
<path d="M13.3935 0.0524902C9.82315 0.0524902 9.37508 0.0681015 7.97282 0.131915C6.57329 0.196002 5.61799 0.417569 4.78211 0.742662C3.91746 1.07844 3.18401 1.5276 2.4533 2.25858C1.72204 2.98928 1.27287 3.72273 0.935999 4.58709C0.610081 5.42323 0.388238 6.37879 0.325245 7.77776C0.262526 9.18002 0.246094 9.62836 0.246094 13.1986C0.246094 16.7689 0.261979 17.2156 0.325519 18.6178C0.389881 20.0174 0.611451 20.9726 0.936273 21.8085C1.27232 22.6732 1.72149 23.4066 2.45248 24.1373C3.18292 24.8686 3.91637 25.3188 4.78046 25.6546C5.61689 25.9797 6.57246 26.2013 7.97172 26.2653C9.37399 26.3292 9.82178 26.3448 13.3918 26.3448C16.9624 26.3448 17.4091 26.3292 18.8114 26.2653C20.2109 26.2013 21.1673 25.9797 22.0037 25.6546C22.8681 25.3188 23.6004 24.8686 24.3309 24.1373C25.0621 23.4066 25.5113 22.6732 25.8482 21.8088C26.1714 20.9726 26.3932 20.0171 26.4589 18.6181C26.5219 17.2159 26.5384 16.7689 26.5384 13.1986C26.5384 9.62836 26.5219 9.18029 26.4589 7.77804C26.3932 6.37852 26.1714 5.42323 25.8482 4.58736C25.5113 3.72273 25.0621 2.98928 24.3309 2.25858C23.5996 1.52732 22.8684 1.07816 22.0029 0.742662C21.1648 0.417569 20.209 0.196002 18.8095 0.131915C17.4072 0.0681015 16.9608 0.0524902 13.3894 0.0524902H13.3935ZM12.2141 2.42153C12.5642 2.42099 12.9547 2.42153 13.3935 2.42153C16.9035 2.42153 17.3195 2.43413 18.7057 2.49712C19.9874 2.55573 20.6831 2.76991 21.1465 2.94984C21.76 3.18812 22.1974 3.47295 22.6572 3.93306C23.1173 4.39318 23.4022 4.83138 23.641 5.44487C23.8209 5.90772 24.0354 6.60337 24.0937 7.88512C24.1567 9.27094 24.1704 9.68724 24.1704 13.1956C24.1704 16.704 24.1567 17.1203 24.0937 18.5061C24.0351 19.7879 23.8209 20.4835 23.641 20.9464C23.4027 21.5598 23.1173 21.9967 22.6572 22.4565C22.1971 22.9166 21.7602 23.2015 21.1465 23.4397C20.6836 23.6205 19.9874 23.8341 18.7057 23.8927C17.3198 23.9557 16.9035 23.9694 13.3935 23.9694C9.88313 23.9694 9.46711 23.9557 8.08127 23.8927C6.79951 23.8336 6.10385 23.6194 5.64017 23.4395C5.02668 23.2012 4.58847 22.9164 4.12835 22.4562C3.66823 21.9961 3.3834 21.559 3.14457 20.9453C2.96463 20.4824 2.75018 19.7868 2.69185 18.505C2.62886 17.1192 2.61626 16.7029 2.61626 13.1923C2.61626 9.68176 2.62886 9.26766 2.69185 7.88184C2.75046 6.60009 2.96463 5.90444 3.14457 5.44104C3.38285 4.82755 3.66823 4.38935 4.12835 3.92923C4.58847 3.46912 5.02668 3.18428 5.64017 2.94546C6.10358 2.7647 6.79951 2.55108 8.08127 2.49219C9.29402 2.43742 9.764 2.42099 12.2141 2.41825V2.42153ZM20.4108 4.60434C19.5399 4.60434 18.8333 5.31012 18.8333 6.18133C18.8333 7.05226 19.5399 7.75886 20.4108 7.75886C21.2818 7.75886 21.9884 7.05226 21.9884 6.18133C21.9884 5.3104 21.2818 4.60379 20.4108 4.60379V4.60434ZM13.3935 6.44754C9.66512 6.44754 6.6423 9.47033 6.6423 13.1986C6.6423 16.9269 9.66512 19.9483 13.3935 19.9483C17.1218 19.9483 20.1435 16.9269 20.1435 13.1986C20.1435 9.47033 17.1215 6.44754 13.3932 6.44754H13.3935ZM13.3935 8.81658C15.8135 8.81658 17.7756 10.7784 17.7756 13.1986C17.7756 15.6186 15.8135 17.5807 13.3935 17.5807C10.9732 17.5807 9.01137 15.6186 9.01137 13.1986C9.01137 10.7784 10.9732 8.81658 13.3935 8.81658Z" fill="#9D9D9D"/>
</svg>
