<svg width="24" height="22" viewBox="0 0 24 22" fill="none" xmlns="http://www.w3.org/2000/svg">
<path d="M3.60438 5.32947C5.13632 5.32947 6.3782 4.14818 6.3782 2.69098C6.3782 1.23378 5.13632 0.0524902 3.60438 0.0524902C2.07245 0.0524902 0.830566 1.23378 0.830566 2.69098C0.830566 4.14818 2.07245 5.32947 3.60438 5.32947Z" fill="#9D9D9D"/>
<path d="M8.91855 7.27942H13.5157V9.28264C13.5157 9.28264 14.7631 6.90938 18.1574 6.90938C21.1852 6.90938 23.6934 8.32818 23.6934 12.6528V21.7722H18.9295V13.7578C18.9295 11.2067 17.4977 10.9261 16.4066 10.9261C14.1422 10.9261 13.7546 12.784 13.7546 14.0906V21.7722H8.91855V7.27942Z" fill="#9D9D9D"/>
<path d="M1.18638 7.27936H6.0224V21.7721H1.18638V7.27936Z" fill="#9D9D9D"/>
</svg>
