<svg width="42" height="42" viewBox="0 0 42 42" fill="none" xmlns="http://www.w3.org/2000/svg">
<path d="M21 42C32.598 42 42 32.598 42 21C42 9.40202 32.598 0 21 0C9.40202 0 0 9.40202 0 21C0 32.598 9.40202 42 21 42Z" fill="#FF481A"/>
<path d="M15.3045 16.0274C14.7377 16.1094 13.5767 16.3211 12.6274 16.765V16.7786C10.5035 17.926 9.13086 20.1659 9.13086 22.645C9.13086 24.885 10.244 26.9269 12.0196 28.1425V21.2723C12.0128 20.5552 12.5523 19.9201 12.6821 19.7903C13.085 19.3806 14.0206 18.882 15.646 18.9913L22.2157 19.0118C22.7143 18.3152 23.7728 16.7855 23.9572 15.9933H16.1923C16.1992 15.9933 15.5094 16.0001 15.3045 16.0274ZM26.6889 12.1962C26.1016 11.206 25.2548 10.3796 24.244 9.81278C23.7591 9.53961 23.1992 9.38254 22.6323 9.35522L22.564 9.34839H12.6411V16.0684C13.2079 15.8157 14.1572 15.5357 15.6596 15.4538V12.3738H22.4957C22.5982 12.3806 22.6938 12.4079 22.7757 12.4489C23.9299 13.0977 24.6128 14.2791 24.6128 15.6108C24.6128 15.7406 24.606 15.8703 24.5923 15.9933L22.6391 19.3669L18.8216 24.605L18.6304 24.8918C18.0362 25.6362 17.1826 26.1142 16.247 26.2303V29.2625C18.1455 29.1328 19.8801 28.2177 21.0616 26.6947L21.1026 26.6469L21.2938 26.3533L25.3162 20.842L26.1152 19.7903C26.1152 19.7903 26.1152 19.7903 26.1221 19.7835L26.1289 19.7767C26.245 19.6333 26.3611 19.4762 26.4635 19.326C26.4635 19.326 26.4635 19.326 26.4704 19.326C26.8665 18.7318 27.4743 17.5845 27.5972 15.9933C27.604 15.8567 27.6109 15.7269 27.6109 15.5903C27.6177 14.3884 27.2967 13.2138 26.6889 12.1962ZM30.8548 18.8752C30.0489 17.9396 29.0518 17.202 27.9455 16.7035C27.8294 17.4069 27.5562 18.5133 26.8733 19.5377C27.5152 19.8518 28.0889 20.2957 28.5601 20.8489C29.3796 21.7981 29.8372 23.0206 29.8372 24.2772C29.844 25.6772 29.2909 27.002 28.2801 28.0196C27.2421 29.0645 25.8762 29.6381 24.4216 29.6381H23.725L15.5845 29.6177L15.6323 19.4011C15.5231 19.3942 14.1231 19.3259 13.1533 20.0977C12.7709 20.405 12.5592 20.8694 12.5592 21.3611L12.607 32.6089L23.7523 32.6567H24.4148C26.6752 32.6567 28.806 31.7689 30.4109 30.1503C31.9952 28.5591 32.8557 26.4694 32.8421 24.2635C32.8557 22.283 32.1387 20.3708 30.8548 18.8752Z" fill="white"/>
</svg>
