<svg width="16" height="14" viewBox="0 0 16 14" fill="none" xmlns="http://www.w3.org/2000/svg">
<path fill-rule="evenodd" clip-rule="evenodd" d="M11.8896 0C12.9456 0 13.9615 0.412227 14.7089 1.1519C15.457 1.89002 15.8752 2.88559 15.8752 3.92782V10.0723C15.8752 12.2424 14.0875 14.0002 11.8896 14.0002H4.1098C1.91186 14.0002 0.125 12.2424 0.125 10.0723V3.92782C0.125 1.7578 1.90398 0 4.1098 0H11.8896ZM13.1419 5.08671L13.2049 5.02449C13.3931 4.79893 13.3931 4.47226 13.1962 4.2467C13.0867 4.13081 12.9363 4.06003 12.7796 4.04448C12.6142 4.03592 12.4567 4.09114 12.3378 4.20003L8.78694 7.00006C8.33019 7.37418 7.67577 7.37418 7.21192 7.00006L3.66813 4.20003C3.42322 4.02114 3.08459 4.04448 2.88062 4.25448C2.66799 4.46448 2.64437 4.79893 2.82471 5.03226L2.92787 5.13338L6.51104 7.89452C6.95204 8.23675 7.48676 8.42341 8.04668 8.42341C8.60503 8.42341 9.14919 8.23675 9.58941 7.89452L13.1419 5.08671Z" fill="#FF481A"/>
</svg>
