<svg width="70" height="65" viewBox="0 0 70 65" fill="none" xmlns="http://www.w3.org/2000/svg">
<path d="M31.1387 15.7257C32.1278 11.6977 37.8722 11.6977 38.8613 15.7257C39.4868 18.2731 42.3874 19.5163 44.6556 18.1986L45.5963 17.6521C48.995 15.6778 52.6962 19.705 50.4718 22.9456C48.9909 25.103 50.1796 28.0795 52.7416 28.6119C56.6319 29.4203 56.6319 34.9761 52.7416 35.7845C50.1796 36.3169 48.9909 39.2935 50.4718 41.4509C52.6962 44.6914 48.995 48.7187 45.5963 46.7443L44.6556 46.1978C42.3874 44.8802 39.4868 46.1233 38.8613 48.6708C37.8722 52.6988 32.1278 52.6988 31.1387 48.6708C30.5132 46.1233 27.6126 44.8802 25.3444 46.1978L24.4037 46.7443C21.005 48.7187 17.3038 44.6914 19.5282 41.4509C21.0091 39.2935 19.8204 36.3169 17.2584 35.7845C13.3681 34.9761 13.3681 29.4203 17.2584 28.6119C19.8204 28.0795 21.0091 25.103 19.5282 22.9456C17.3038 19.705 21.005 15.6778 24.4037 17.6521L25.3444 18.1986C27.6126 19.5163 30.5132 18.2731 31.1387 15.7257Z" fill="#FFF3C0"/>
<path d="M23.803 35.8386V28.4246H25.145L26.971 31.5266C27.3083 32.106 27.6127 32.6413 27.884 33.1326C28.1627 33.624 28.3533 33.9686 28.456 34.1666L28.61 34.4746C28.566 33.8073 28.544 32.8283 28.544 31.5376V28.4246H29.677V35.8386H28.335L26.498 32.7476C26.168 32.1903 25.8637 31.666 25.585 31.1746C25.3137 30.676 25.123 30.3166 25.013 30.0966L24.848 29.7776C24.9067 30.511 24.936 31.4973 24.936 32.7366V35.8386H23.803ZM34.8656 32.6486V32.4506C34.8509 32.0326 34.7372 31.7026 34.5246 31.4606C34.3119 31.2113 34.0076 31.0866 33.6116 31.0866C33.2449 31.0866 32.9296 31.2223 32.6656 31.4936C32.4016 31.7576 32.2366 32.1426 32.1706 32.6486H34.8656ZM35.5586 34.5736V35.5416C35.1479 35.7763 34.6052 35.8936 33.9306 35.8936C33.0652 35.8936 32.3759 35.6333 31.8626 35.1126C31.3492 34.592 31.0926 33.91 31.0926 33.0666C31.0926 32.172 31.3272 31.4716 31.7966 30.9656C32.2659 30.4523 32.8636 30.1956 33.5896 30.1956C34.3009 30.1956 34.8656 30.4193 35.2836 30.8666C35.7016 31.3066 35.9106 31.9446 35.9106 32.7806C35.9106 33.008 35.8886 33.2463 35.8446 33.4956H32.1816C32.2549 33.9796 32.4602 34.35 32.7976 34.6066C33.1349 34.8633 33.5602 34.9916 34.0736 34.9916C34.6676 34.9916 35.1626 34.8523 35.5586 34.5736ZM38.5439 35.8386L36.7949 30.2616H37.9389L38.4559 32.1096C38.6245 32.6963 38.7675 33.2133 38.8849 33.6606C39.0022 34.108 39.0755 34.4086 39.1049 34.5626L39.1489 34.7936C39.2442 34.3316 39.4862 33.4333 39.8749 32.0986L40.4139 30.2616H41.4589L42.0089 32.0986C42.1849 32.7073 42.3352 33.239 42.4599 33.6936C42.5845 34.141 42.6652 34.438 42.7019 34.5846L42.7459 34.8046C42.8339 34.372 43.0832 33.47 43.4939 32.0986L44.0439 30.2616H45.1329L43.3619 35.8386H42.1299L41.6129 34.0126C41.4589 33.4553 41.3232 32.964 41.2059 32.5386C41.0959 32.106 41.0225 31.8126 40.9859 31.6586L40.9419 31.4386C40.8392 31.9153 40.6155 32.7733 40.2709 34.0126L39.7649 35.8386H38.5439Z" fill="black"/>
</svg>
