<svg width="27" height="24" viewBox="0 0 27 24" fill="none" xmlns="http://www.w3.org/2000/svg">
<path d="M22.2551 14.7807C22.9222 14.9604 23.3242 15.6492 23.0781 16.2948C22.2454 18.4793 20.7917 20.3809 18.8858 21.7542C16.6415 23.3713 13.9089 24.1559 11.1538 23.9743C8.39861 23.7927 5.79131 22.6562 3.77611 20.7584C1.76091 18.8605 0.462491 16.3188 0.1021 13.5663C-0.258292 10.8138 0.341637 8.0208 1.79967 5.66319C3.2577 3.30558 5.48361 1.52924 8.09815 0.636839C10.7127 -0.255562 13.5541 -0.20881 16.1382 0.769128C18.3326 1.59961 20.2262 3.05799 21.5929 4.95137C21.997 5.5113 21.7871 6.28018 21.1899 6.62688V6.62688C20.5886 6.97592 19.8244 6.7631 19.4014 6.2114C18.3364 4.82243 16.9033 3.75073 15.2555 3.12714C13.214 2.35453 10.9692 2.3176 8.90358 3.02263C6.83799 3.72766 5.07942 5.13104 3.92752 6.99365C2.77562 8.85626 2.30165 11.0629 2.58637 13.2375C2.8711 15.4121 3.8969 17.4201 5.48899 18.9195C7.08108 20.4188 9.14096 21.3167 11.3176 21.4602C13.4943 21.6037 15.6532 20.9838 17.4263 19.7062C18.8588 18.674 19.9679 17.2641 20.6389 15.6433C20.9042 15.0025 21.5855 14.6003 22.2551 14.7807V14.7807Z" fill="white"/>
<path d="M23.6393 10.7482C23.6416 10.9081 23.4657 11.0066 23.3318 10.9205L18.0107 7.49929C17.8838 7.41767 17.8898 7.2294 18.0217 7.15551L23.25 4.22678C23.3819 4.15288 23.5443 4.24681 23.5465 4.39829L23.6393 10.7482Z" fill="white"/>
</svg>
