<svg width="35" height="35" viewBox="0 0 35 35" fill="none" xmlns="http://www.w3.org/2000/svg">
<circle cx="17.5" cy="17.5" r="17" fill="white" stroke="#BDBDBD"/>
<path d="M7 10.25C6.58579 10.25 6.25 10.5858 6.25 11C6.25 11.4142 6.58579 11.75 7 11.75V10.25ZM27.5303 11.5303C27.8232 11.2374 27.8232 10.7626 27.5303 10.4697L22.7574 5.6967C22.4645 5.40381 21.9896 5.40381 21.6967 5.6967C21.4038 5.98959 21.4038 6.46447 21.6967 6.75736L25.9393 11L21.6967 15.2426C21.4038 15.5355 21.4038 16.0104 21.6967 16.3033C21.9896 16.5962 22.4645 16.5962 22.7574 16.3033L27.5303 11.5303ZM7 11.75H27V10.25H7V11.75Z" fill="#828282"/>
<path d="M27 22.25C27.4142 22.25 27.75 22.5858 27.75 23C27.75 23.4142 27.4142 23.75 27 23.75V22.25ZM6.46967 23.5303C6.17678 23.2374 6.17678 22.7626 6.46967 22.4697L11.2426 17.6967C11.5355 17.4038 12.0104 17.4038 12.3033 17.6967C12.5962 17.9896 12.5962 18.4645 12.3033 18.7574L8.06066 23L12.3033 27.2426C12.5962 27.5355 12.5962 28.0104 12.3033 28.3033C12.0104 28.5962 11.5355 28.5962 11.2426 28.3033L6.46967 23.5303ZM27 23.75H7V22.25H27V23.75Z" fill="#828282"/>
</svg>
