<svg width="35" height="35" viewBox="0 0 35 35" fill="none" xmlns="http://www.w3.org/2000/svg">
<circle cx="17.5" cy="17.5" r="17" fill="white" stroke="#BDBDBD"/>
<path d="M7 16.25C6.58579 16.25 6.25 16.5858 6.25 17C6.25 17.4142 6.58579 17.75 7 17.75V16.25ZM27.5303 17.5303C27.8232 17.2374 27.8232 16.7626 27.5303 16.4697L22.7574 11.6967C22.4645 11.4038 21.9896 11.4038 21.6967 11.6967C21.4038 11.9896 21.4038 12.4645 21.6967 12.7574L25.9393 17L21.6967 21.2426C21.4038 21.5355 21.4038 22.0104 21.6967 22.3033C21.9896 22.5962 22.4645 22.5962 22.7574 22.3033L27.5303 17.5303ZM7 17.75H27V16.25H7V17.75Z" fill="#828282"/>
</svg>
