<svg width="29" height="11" viewBox="0 0 29 11" fill="none" xmlns="http://www.w3.org/2000/svg">
<path d="M7.95017 0.0498312L6.56709 1.43291C6.52948 1.47052 6.52789 1.53099 6.56347 1.57052L10.9052 6.39462C10.9514 6.44599 10.9328 6.52767 10.8689 6.55398L2.88304 9.84228C2.78597 9.88225 2.8082 10.0257 2.91281 10.0344L8.47955 10.4983C8.49304 10.4994 8.50567 10.4981 8.51852 10.4938C10.036 9.98856 14.4229 8.59347 20 7C25.3901 5.45997 28.1244 3.17877 28.9163 2.11822C28.9583 2.06191 28.927 1.98384 28.8581 1.97017C25.2771 1.25985 19.869 3.32327 17.5422 4.47895C17.5147 4.49262 17.4838 4.49232 17.456 4.47916L8.06369 0.0301681C8.02549 0.0120766 7.98005 0.0199479 7.95017 0.0498312Z" fill="#828282"/>
<path d="M0.949035 6.05097L0.0707107 6.92929C0.0316583 6.96834 0.0316581 7.03166 0.0707105 7.07071L1.9563 8.9563C1.98308 8.98308 2.0227 8.99243 2.05863 8.98046L4.77097 8.07634C4.85549 8.04817 4.86375 7.93188 4.78407 7.89203L1.06447 6.03223C1.02597 6.01298 0.979471 6.02053 0.949035 6.05097Z" fill="#828282"/>
</svg>
