<svg width="24" height="22" viewBox="0 0 24 22" fill="none" xmlns="http://www.w3.org/2000/svg">
<path fill-rule="evenodd" clip-rule="evenodd" d="M21.0438 5.60291C21.0524 5.82914 21.0552 6.05528 21.0552 6.28151C21.0552 13.1404 16.3376 21.0585 7.71065 21.0585C5.06061 21.0585 2.59645 20.1947 0.520264 18.7242C0.887266 18.7653 1.25999 18.7963 1.63843 18.7963C3.83568 18.7963 5.85944 17.9631 7.46472 16.5646C5.41236 16.5338 3.67936 15.0222 3.08167 12.9655C3.3686 13.0272 3.66408 13.0582 3.96627 13.0582C4.39237 13.0582 4.80608 12.9966 5.20263 12.8732C3.05495 12.4001 1.4373 10.3024 1.4373 7.78306C1.4373 7.75221 1.4373 7.74187 1.4373 7.7213C2.07026 8.10178 2.79472 8.33817 3.564 8.36902C2.30379 7.43325 1.47541 5.83941 1.47541 4.03986C1.47541 3.09381 1.70609 2.19914 2.11218 1.4279C4.42477 4.57454 7.88225 6.64148 11.7801 6.85743C11.7 6.47695 11.659 6.07601 11.659 5.67497C11.659 2.80597 13.759 0.481934 16.35 0.481934C17.6988 0.481934 18.9171 1.1093 19.7722 2.11704C20.8427 1.89081 21.8455 1.45895 22.753 0.86253C22.4012 2.07594 21.6586 3.09376 20.6882 3.73131C21.6377 3.60792 22.5433 3.33048 23.3831 2.91916C22.753 3.95775 21.9599 4.87281 21.0438 5.60291Z" fill="#9D9D9D"/>
</svg>
