<svg width="16" height="18" viewBox="0 0 16 18" fill="none" xmlns="http://www.w3.org/2000/svg">
<path fill-rule="evenodd" clip-rule="evenodd" d="M16 8.33498C16 12.9383 12.4183 16.67 8 16.67C6.81231 16.67 5.68506 16.4003 4.67159 15.9165L1.3617 18L2.15365 14.0245C0.817701 12.5349 0 10.5344 0 8.33498C0 3.7317 3.58172 0 8 0C12.4183 0 16 3.7317 16 8.33498ZM9.53339 9.33251C9.69263 9.23646 9.87248 9.12799 10.0993 9.17883C10.3048 9.22381 11.0056 9.81853 11.197 10.0246C11.3228 10.1596 11.3927 10.2989 11.4039 10.4383C11.4225 10.9851 10.7126 11.6093 10.583 11.6871C10.4113 11.8165 10.2114 11.8818 9.98694 11.8818C9.75758 11.8818 9.50222 11.8136 9.22297 11.6775C7.70978 11.0168 5.39819 8.64643 4.78701 7.07576C4.5334 6.49101 4.532 6.00875 4.78279 5.64631C4.8829 5.47634 5.45368 4.76586 5.96476 4.78872C6.10069 4.80051 6.23311 4.87352 6.36237 5.00625C6.55837 5.20719 7.11265 5.94201 7.1555 6.1577C7.20292 6.39773 7.09895 6.58797 7.00692 6.75536C6.98717 6.79137 6.96061 6.83407 6.93153 6.88082C6.82096 7.05856 6.67391 7.29494 6.72592 7.44557C7.0986 8.40309 7.95952 9.23782 8.87488 9.63049C9.01664 9.68399 9.24209 9.52934 9.41116 9.41336C9.45532 9.38307 9.49564 9.35541 9.52961 9.33479L9.53339 9.33251Z" fill="#FF481A"/>
</svg>
